<?xml version="1.0" encoding="utf-8"?>
<!-- Generator: Adobe Illustrator 24.0.1, SVG Export Plug-In . SVG Version: 6.00 Build 0)  -->
<svg version="1.1" id="Capa_1" xmlns="http://www.w3.org/2000/svg" xmlns:xlink="http://www.w3.org/1999/xlink" x="0px" y="0px"
	 viewBox="0 0 967.5 499.4" style="enable-background:new 0 0 967.5 499.4;" xml:space="preserve">
<style type="text/css">
	.st0{opacity:0.36;fill:url(#SVGID_1_);enable-background:new    ;}
	.st1{fill:url(#SVGID_2_);}
	.st2{opacity:0.76;}
	.st3{clip-path:url(#SVGID_4_);}
	.st4{fill:#FFACC9;}
	.st5{fill:url(#SVGID_5_);}
	.st6{fill:url(#SVGID_6_);}
	.st7{fill:url(#SVGID_7_);}
	.st8{opacity:0.3;fill:url(#SVGID_8_);enable-background:new    ;}
	.st9{fill:url(#SVGID_9_);}
	.st10{opacity:0.48;fill:url(#SVGID_10_);enable-background:new    ;}
	.st11{clip-path:url(#SVGID_12_);}
	.st12{fill:url(#SVGID_13_);}
	.st13{fill:url(#SVGID_14_);}
	.st14{fill:#FFFFFF;}
	.st15{opacity:0.28;}
	.st16{clip-path:url(#SVGID_16_);}
	.st17{clip-path:url(#SVGID_18_);}
	.st18{fill:none;stroke:#FFFFFF;stroke-width:2;stroke-miterlimit:10;}
	.st19{fill:none;stroke:#FFFFFF;stroke-width:1.31;stroke-miterlimit:10;}
	.st20{fill:url(#SVGID_19_);}
	.st21{fill:url(#SVGID_20_);}
	.st22{fill:url(#SVGID_21_);}
	.st23{fill:url(#SVGID_22_);}
	.st24{fill:url(#SVGID_23_);}
	.st25{fill:url(#SVGID_24_);}
	.st26{fill:url(#SVGID_25_);}
	.st27{fill:url(#SVGID_26_);}
	.st28{fill:url(#SVGID_27_);}
	.st29{fill:url(#SVGID_28_);}
	.st30{fill:url(#SVGID_29_);}
	.st31{fill:url(#SVGID_30_);}
</style>
<title>colorful</title>
<g>
	<g id="Capa_2_1_">
		<g id="BACKGROUND">
			
				<linearGradient id="SVGID_1_" gradientUnits="userSpaceOnUse" x1="1209.8925" y1="207.9261" x2="1209.8925" y2="353.4361" gradientTransform="matrix(-0.864 0.5035 -0.5035 -0.864 1813.4713 -286.2104)">
				<stop  offset="0" style="stop-color:#FFE7DD;stop-opacity:0"/>
				<stop  offset="1" style="stop-color:#FF7B8B"/>
			</linearGradient>
			<circle class="st0" cx="633.7" cy="92.3" r="68"/>
			
				<linearGradient id="SVGID_2_" gradientUnits="userSpaceOnUse" x1="1458.9009" y1="172.3661" x2="1458.9009" y2="233.4761" gradientTransform="matrix(-0.864 0.5035 -0.5035 -0.864 1813.4713 -286.2104)">
				<stop  offset="0" style="stop-color:#FFE7DD;stop-opacity:0"/>
				<stop  offset="1" style="stop-color:#FFC0A2"/>
			</linearGradient>
			<circle class="st1" cx="448" cy="268.2" r="41.6"/>
			<g class="st2">
				<g>
					<g>
						<g>
							<defs>
								<circle id="SVGID_3_" cx="298" cy="285.5" r="70.7"/>
							</defs>
							<clipPath id="SVGID_4_">
								<use xlink:href="#SVGID_3_"  style="overflow:visible;"/>
							</clipPath>
							<g class="st3">
								
									<rect x="253.2" y="24.2" transform="matrix(0.2549 -0.967 0.967 0.2549 0.5564 391.8682)" class="st4" width="2.8" height="342.7"/>
								
									<rect x="260" y="35.8" transform="matrix(0.2549 -0.967 0.967 0.2549 -5.5647 407.0726)" class="st4" width="2.8" height="342.7"/>
								
									<rect x="266.6" y="47.3" transform="matrix(0.2549 -0.967 0.967 0.2549 -11.7176 422.0616)" class="st4" width="2.8" height="342.7"/>
								
									<rect x="273.2" y="58.8" transform="matrix(0.2549 -0.967 0.967 0.2549 -17.9215 437.0578)" class="st4" width="2.8" height="342.7"/>
								
									<rect x="280.1" y="70.3" transform="matrix(0.2549 -0.967 0.967 0.2549 -23.9602 452.2233)" class="st4" width="2.8" height="342.7"/>
								
									<rect x="286.8" y="81.9" transform="matrix(0.2549 -0.967 0.967 0.2549 -30.1275 467.3466)" class="st4" width="2.8" height="342.7"/>
								
									<rect x="293.4" y="93.4" transform="matrix(0.2549 -0.967 0.967 0.2549 -36.317 482.3537)" class="st4" width="2.8" height="342.7"/>
								
									<rect x="300.2" y="105.1" transform="matrix(0.2549 -0.967 0.967 0.2549 -42.5578 497.6067)" class="st4" width="2.8" height="342.7"/>
								
									<rect x="307" y="116.5" transform="matrix(0.2549 -0.967 0.967 0.2549 -48.5231 512.6425)" class="st4" width="2.8" height="342.7"/>
								
									<rect x="313.7" y="128.1" transform="matrix(0.2549 -0.967 0.967 0.2549 -54.7497 527.7612)" class="st4" width="2.8" height="342.7"/>
								
									<rect x="320.4" y="139.6" transform="matrix(0.2549 -0.967 0.967 0.2549 -60.8916 542.8807)" class="st4" width="2.8" height="342.7"/>
								
									<rect x="327.1" y="151.1" transform="matrix(0.2549 -0.967 0.967 0.2549 -67.0624 557.8724)" class="st4" width="2.8" height="342.7"/>
								
									<rect x="333.9" y="162.7" transform="matrix(0.2549 -0.967 0.967 0.2549 -73.1654 573.0743)" class="st4" width="2.8" height="342.7"/>
								
									<rect x="340.6" y="174.2" transform="matrix(0.2549 -0.967 0.967 0.2549 -79.287 588.1767)" class="st4" width="2.8" height="342.7"/>
								
									<rect x="347.3" y="185.7" transform="matrix(0.2549 -0.967 0.967 0.2549 -85.4471 603.2989)" class="st4" width="2.8" height="342.7"/>
								
									<rect x="354" y="197.3" transform="matrix(0.2549 -0.967 0.967 0.2549 -91.6735 618.4177)" class="st4" width="2.8" height="342.7"/>
								
									<rect x="360.8" y="208.7" transform="matrix(0.2549 -0.967 0.967 0.2549 -97.6572 633.4689)" class="st4" width="2.8" height="342.7"/>
							</g>
						</g>
					</g>
				</g>
			</g>
			
				<linearGradient id="SVGID_5_" gradientUnits="userSpaceOnUse" x1="974.3879" y1="146.8963" x2="1389.9474" y2="146.8963" gradientTransform="matrix(-0.864 0.5035 -0.5035 -0.864 1798.151 -190.9585)">
				<stop  offset="0" style="stop-color:#FFC431"/>
				<stop  offset="1" style="stop-color:#FF8300"/>
			</linearGradient>
			<path class="st5" d="M917.5,233.1c0,0-70.5,63.7-165.3,53s-143.4,7.2-213.5,77.6s67.7-161,184.8-168.5
				C840.7,187.6,917.5,233.1,917.5,233.1z"/>
			
				<linearGradient id="SVGID_6_" gradientUnits="userSpaceOnUse" x1="1067.2245" y1="263.2477" x2="1745.8523" y2="263.2477" gradientTransform="matrix(-0.864 0.5035 -0.5035 -0.864 1798.151 -190.9585)">
				<stop  offset="0" style="stop-color:#00DDFF"/>
				<stop  offset="0.26" style="stop-color:#38A6FF"/>
				<stop  offset="0.87" style="stop-color:#C31EFF"/>
				<stop  offset="1" style="stop-color:#E100FF"/>
			</linearGradient>
			<path class="st6" d="M817.8,246.4c-1.8,1.7-47.9-9.5-76.3-3.8c-41.2,8.3-94.8,6-120.2,45.1c-11.2,17.2-20.7,22.8-37.5,33
				c-15.1,9.2-19.5,24.2-27.6,39c-19.1,34.9-45.8,58.2-82.8,70c-31.9,10.2-60.6-4.6-88.7-20.6c-13.8-7.8-29.1-16.9-45.4-16.7
				c-15.3,0.2-24.8,10.4-37.6,17.5c-25.1,14-49.7,7.6-76.8,9.3c-26.9,1.7-54.5,12.9-72.1,33.9c-6.7-18.5-13.3-37.3-21-55.4
				c-9.2-21.7-28.1-35.8-41.2-55.2c13.8-17,31.9-31.7,50.5-43.2c40.4-24.9,70.7-10.6,108.6,10.9c29.8,16.9,61.6,27.2,96.5,29.6
				c31.8,2.3,70.9,3,101.3-5c21.4-5.6,41.7-16.5,57.1-33c16.5-17.6,31.9-36.6,48.2-54.5c20.3-22.3,29.6-51.6,48.3-74.9
				c19.9-24.8,44-26.7,72.1-17.3C725.7,172.5,817.8,246.4,817.8,246.4z"/>
			
				<linearGradient id="SVGID_7_" gradientUnits="userSpaceOnUse" x1="896.695" y1="281.189" x2="1751.6461" y2="281.189" gradientTransform="matrix(-0.864 0.5035 -0.5035 -0.864 1798.151 -190.9585)">
				<stop  offset="0" style="stop-color:#FF008B"/>
				<stop  offset="0.12" style="stop-color:#FF0986"/>
				<stop  offset="0.32" style="stop-color:#FF207A"/>
				<stop  offset="0.56" style="stop-color:#FF4665"/>
				<stop  offset="0.84" style="stop-color:#FF7A48"/>
				<stop  offset="1" style="stop-color:#FF9B36"/>
			</linearGradient>
			<path class="st7" d="M932.6,226.1c-17.1,11.7-34.2,28-54.2,33.3c-19,5.2-38.8,7.2-58.4,5.7c-22.6-1.9-43.3-14-64.7-15.5
				c-49.7-3.6-142.5-44.9-165.7,28.7c-3.9,12.3-6.5,30.4-14.7,40.8c-7.4,9.2-20.4,12.2-30.2,18c-14.2,8.2-25.5,17.2-41.9,20.9
				c-23.4,5.1-47.7,1.1-70.2-4c-25.2-5.8-43.1-16.6-68.4-6.5c-18.5,7.3-30.8-2.3-46.8-12.7c-16.8-11-34.7-19.9-51.2-31.2
				c-21.3-14.8-42.9-39.8-70.5-41.1c-42.9-2-120.8,59.8-93.1,107.5c-18.7-18.2-23.3-27.2-19.2-52.2c3.4-20.6-19.1-9.3-27.8-28.6
				c48.7-69.1,106.3-111,163.6-87.8c20.5,8.1,37.8,22.6,49.4,41.3c11.8,18.5,20,47.6,38.1,60.9c7.4,5.4,18.2,6.2,26.6,9.7
				c13.7,5.6,21.4,6.7,36.5,4.2c15.9-2.6,31.5-7.7,43.2-19.2c6-5.8,9-11,16.8-14.7c7.3-3.4,15.5-3.5,22.2-8.5
				c26-19.3,18.7-58.7,24.6-86.6c6.6-30.6,43.9-68.2,71-80.7c67.5-31.1,114,6.5,168.6,43.7c33.8,23,114.7,49.1,150.3,17.3
				c25.2-22.5,50.2-32.8,73.8-28.3c24.6,4.7,35.3,34.1,20,54C952.1,205.3,944,216.4,932.6,226.1z"/>
			
				<linearGradient id="SVGID_8_" gradientUnits="userSpaceOnUse" x1="1383.8452" y1="155.5861" x2="1383.8452" y2="475.516" gradientTransform="matrix(-0.864 0.5035 -0.5035 -0.864 1798.151 -190.9585)">
				<stop  offset="0" style="stop-color:#A42F7F"/>
				<stop  offset="0.18" style="stop-color:#AD3578"/>
				<stop  offset="0.47" style="stop-color:#C44466"/>
				<stop  offset="0.82" style="stop-color:#E95C47"/>
				<stop  offset="1" style="stop-color:#FF6A36"/>
			</linearGradient>
			<path class="st8" d="M158,243.5c76.7-41.2,107.3,38.2,136.3,61.2s29,43.8,72,22.3c43-21.6,51.4,4.8,80.4,6.9
				c88.9-8.4,56.6-39.9,149-128.5S866.6,235,866.6,235l8.3,25.2c-17.9,4.6-36.5,6.2-54.9,4.8c-22.6-1.9-43.3-14-64.7-15.5
				c-49.7-3.6-142.5-44.9-165.7,28.7c-3.9,12.3-6.5,30.4-14.7,40.8c-7.4,9.2-20.4,12.2-30.2,18c-14.2,8.2-25.5,17.2-41.9,20.9
				c-23.4,5.1-47.7,1.1-70.2-4c-25.2-5.8-43.1-16.6-68.4-6.5c-18.5,7.3-30.8-2.3-46.8-12.7c-16.8-11-34.7-19.9-51.2-31.2
				c-21.3-14.8-42.9-39.8-70.5-41.1c-38-1.8-103.5,46.6-98.6,90.7l-9.8-7.4C87.2,345.5,81.3,284.7,158,243.5z"/>
			
				<linearGradient id="SVGID_9_" gradientUnits="userSpaceOnUse" x1="914.6607" y1="278.1838" x2="1843.2847" y2="278.1838" gradientTransform="matrix(-0.864 0.5035 -0.5035 -0.864 1798.151 -190.9585)">
				<stop  offset="0" style="stop-color:#00ECFF"/>
				<stop  offset="5.000000e-02" style="stop-color:#03DEF9"/>
				<stop  offset="0.14" style="stop-color:#0AB9E8"/>
				<stop  offset="0.27" style="stop-color:#167DCD"/>
				<stop  offset="0.42" style="stop-color:#262CA9"/>
				<stop  offset="0.5" style="stop-color:#2E0095"/>
				<stop  offset="0.55" style="stop-color:#360099"/>
				<stop  offset="0.62" style="stop-color:#4C00A4"/>
				<stop  offset="0.72" style="stop-color:#6F00B6"/>
				<stop  offset="0.83" style="stop-color:#A100CF"/>
				<stop  offset="0.94" style="stop-color:#DF00EF"/>
				<stop  offset="1" style="stop-color:#FF00FF"/>
			</linearGradient>
			<path class="st9" d="M880.6,84.9C851.5,53,808.7,37.1,765.9,42.7c-0.3,0-0.5,0.1-0.8,0.1c-54.5,7.3-94.6,39.2-125.7,81
				c-21.1,28.5-20.2,63.9-32.6,97.1c-7.9,21.1-22,39.9-38.7,55c-39.1,35.6-82.5,31.9-131.3,21.2c-33.8-7.4-70.4-11.8-96.2,15
				c-20.4,21.3-42.3,35.7-71.4,43.1c-52.3,13.4-92.5-30.8-135.6-53.1c-17.2-8.9-30.3-18.9-50.2-21.4c-27.4-3.5-54.7,2.7-80.1,12.8
				C7.4,304.1,15.5,319,15,330.8c-0.4,10.3-7.6,21.4-11.2,30.8c-9.8,26.1-0.4,33,22.2,42.7c24.3,10.5,27.1,18.7,36.2,42.4l20.2,52.6
				c22.4-43.9,59.7-104.1,110.3-114.6c43.9-9.1,101.6,5.7,139.6-24.1c10.3-8.1,13.1-22.4,23.8-29.9c20.1-14.1,49.9,5.8,68.6,8.8
				c32,5.1,76.3,11.1,109.8-1.2c29-10.6,38.6-36.8,54.1-60.6c38.6-59.2,156.9-86.4,213.3-42.9c40.6,31.3,82.3,27.3,116.4,4.2
				c33.6-22.7,39-70.1,11.7-100.1L880.6,84.9z"/>
			
				<linearGradient id="SVGID_10_" gradientUnits="userSpaceOnUse" x1="941.7306" y1="225.287" x2="1831.1313" y2="225.287" gradientTransform="matrix(-0.864 0.5035 -0.5035 -0.864 1798.151 -190.9585)">
				<stop  offset="0" style="stop-color:#00ECFF"/>
				<stop  offset="5.000000e-02" style="stop-color:#03DEF9"/>
				<stop  offset="0.14" style="stop-color:#0AB9E8"/>
				<stop  offset="0.27" style="stop-color:#167DCD"/>
				<stop  offset="0.42" style="stop-color:#262CA9"/>
				<stop  offset="0.5" style="stop-color:#2E0095"/>
				<stop  offset="0.55" style="stop-color:#360097"/>
				<stop  offset="0.62" style="stop-color:#4C019B"/>
				<stop  offset="0.72" style="stop-color:#6F02A2"/>
				<stop  offset="0.83" style="stop-color:#A103AC"/>
				<stop  offset="0.94" style="stop-color:#DF05B9"/>
				<stop  offset="1" style="stop-color:#FF06BF"/>
			</linearGradient>
			<path class="st10" d="M424.7,339.6c-18.7-3-48.5-23-68.6-8.8c-10.7,7.5-13.5,21.7-23.8,29.9c-37.9,29.8-95.7,15-139.6,24.1
				c-50.6,10.5-87.9,70.7-110.3,114.6c-6.6-17.2-13.2-34.4-19.8-51.6c-8.9-23.2-12.1-33.5-37-43.6c64.4-52.5,147.6-40,221.9-35
				c42.3,2.9,66.4-26.6,101.4-46.7c54.2-31,111.6,26.2,169.4,15.5c35.6-6.6,50.8-37.9,68.1-65.8c27.8-44.9,62.8-87.3,105.9-117.6
				c83.6-58.7,188.6,2.3,252.8,61c-40.2,46.3-93.2,57.8-143.3,19.3c-56.6-43.4-174.7-16.2-213.3,42.9c-15.5,23.8-25.2,50-54.1,60.6
				C500.9,350.8,456.7,344.8,424.7,339.6z"/>
			<g class="st2">
				<g>
					<g>
						<g>
							<defs>
								<circle id="SVGID_11_" cx="712.9" cy="270.6" r="70.7"/>
							</defs>
							<clipPath id="SVGID_12_">
								<use xlink:href="#SVGID_11_"  style="overflow:visible;"/>
							</clipPath>
							<g class="st11">
								
									<rect x="668.1" y="9.2" transform="matrix(0.2549 -0.967 0.967 0.2549 324.2443 781.9307)" class="st4" width="2.8" height="342.7"/>
								
									<rect x="674.8" y="20.8" transform="matrix(0.2549 -0.967 0.967 0.2549 318.0844 797.0529)" class="st4" width="2.8" height="342.7"/>
								
									<rect x="681.5" y="32.3" transform="matrix(0.2549 -0.967 0.967 0.2549 311.906 812.0455)" class="st4" width="2.8" height="342.7"/>
								
									<rect x="688.3" y="43.8" transform="matrix(0.2549 -0.967 0.967 0.2549 305.8032 827.2475)" class="st4" width="2.8" height="342.7"/>
								
									<rect x="695" y="55.3" transform="matrix(0.2549 -0.967 0.967 0.2549 299.7361 842.316)" class="st4" width="2.8" height="342.7"/>
								
									<rect x="701.7" y="66.8" transform="matrix(0.2549 -0.967 0.967 0.2549 293.5359 857.3378)" class="st4" width="2.8" height="342.7"/>
								
									<rect x="708.4" y="78.5" transform="matrix(0.2549 -0.967 0.967 0.2549 287.3061 872.576)" class="st4" width="2.8" height="342.7"/>
								
									<rect x="715.1" y="90" transform="matrix(0.2549 -0.967 0.967 0.2549 281.1056 887.5978)" class="st4" width="2.8" height="342.7"/>
								
									<rect x="721.8" y="101.5" transform="matrix(0.2549 -0.967 0.967 0.2549 275.028 902.681)" class="st4" width="2.8" height="342.7"/>
								
									<rect x="728.7" y="113.1" transform="matrix(0.2549 -0.967 0.967 0.2549 268.9359 917.8684)" class="st4" width="2.8" height="342.7"/>
								
									<rect x="735.3" y="124.6" transform="matrix(0.2549 -0.967 0.967 0.2549 262.7571 932.861)" class="st4" width="2.8" height="342.7"/>
								
									<rect x="742.1" y="136.1" transform="matrix(0.2549 -0.967 0.967 0.2549 256.6473 948.051)" class="st4" width="2.8" height="342.7"/>
								
									<rect x="748.7" y="147.8" transform="matrix(0.2549 -0.967 0.967 0.2549 250.3454 963.1056)" class="st4" width="2.8" height="342.7"/>
								
									<rect x="755.5" y="159.2" transform="matrix(0.2549 -0.967 0.967 0.2549 244.3763 978.168)" class="st4" width="2.8" height="342.7"/>
								
									<rect x="762.3" y="170.7" transform="matrix(0.2549 -0.967 0.967 0.2549 238.2555 993.3724)" class="st4" width="2.8" height="342.7"/>
								
									<rect x="768.9" y="182.3" transform="matrix(0.2549 -0.967 0.967 0.2549 231.9754 1008.3978)" class="st4" width="2.8" height="342.7"/>
								
									<rect x="775.7" y="193.7" transform="matrix(0.2549 -0.967 0.967 0.2549 226.0064 1023.4601)" class="st4" width="2.8" height="342.7"/>
							</g>
						</g>
					</g>
				</g>
			</g>
			
				<linearGradient id="SVGID_13_" gradientUnits="userSpaceOnUse" x1="1124.7603" y1="52.6561" x2="1124.7603" y2="161.7261" gradientTransform="matrix(-0.864 0.5035 -0.5035 -0.864 1813.4713 -286.2104)">
				<stop  offset="0" style="stop-color:#FFE7DD;stop-opacity:0"/>
				<stop  offset="7.000000e-02" style="stop-color:#FFE2D6;stop-opacity:0.12"/>
				<stop  offset="0.21" style="stop-color:#FFD9C9;stop-opacity:0.35"/>
				<stop  offset="0.36" style="stop-color:#FFD2BD;stop-opacity:0.55"/>
				<stop  offset="0.5" style="stop-color:#FFCBB3;stop-opacity:0.71"/>
				<stop  offset="0.64" style="stop-color:#FFC6AC;stop-opacity:0.84"/>
				<stop  offset="0.77" style="stop-color:#FFC3A6;stop-opacity:0.93"/>
				<stop  offset="0.89" style="stop-color:#FFC1A3;stop-opacity:0.98"/>
				<stop  offset="1" style="stop-color:#FFC0A2"/>
			</linearGradient>
			<circle class="st12" cx="782.7" cy="178.9" r="74.2"/>
			
				<linearGradient id="SVGID_14_" gradientUnits="userSpaceOnUse" x1="1262.8044" y1="129.1361" x2="1262.8044" y2="187.5261" gradientTransform="matrix(-0.864 0.5035 -0.5035 -0.864 1813.4713 -286.2104)">
				<stop  offset="0" style="stop-color:#FFE7DD;stop-opacity:0"/>
				<stop  offset="7.000000e-02" style="stop-color:#FFE2D6;stop-opacity:0.12"/>
				<stop  offset="0.21" style="stop-color:#FFD9C9;stop-opacity:0.35"/>
				<stop  offset="0.36" style="stop-color:#FFD2BD;stop-opacity:0.55"/>
				<stop  offset="0.5" style="stop-color:#FFCBB3;stop-opacity:0.71"/>
				<stop  offset="0.64" style="stop-color:#FFC6AC;stop-opacity:0.84"/>
				<stop  offset="0.77" style="stop-color:#FFC3A6;stop-opacity:0.93"/>
				<stop  offset="0.89" style="stop-color:#FFC1A3;stop-opacity:0.98"/>
				<stop  offset="1" style="stop-color:#FFC0A2"/>
			</linearGradient>
			<circle class="st13" cx="640" cy="208.2" r="39.8"/>
			<path class="st14" d="M742.8,121.1c-0.5-0.9-1.6-1.2-2.5-0.7s-1.2,1.6-0.7,2.5s1.6,1.2,2.5,0.7l0,0
				C743,123.1,743.3,122,742.8,121.1L742.8,121.1z"/>
			<path class="st14" d="M756.3,113.2c-0.5-0.9-1.6-1.2-2.5-0.7s-1.2,1.6-0.7,2.5s1.6,1.2,2.5,0.7
				C756.6,115.2,756.8,114.1,756.3,113.2L756.3,113.2z"/>
			<path class="st14" d="M736.9,111c-0.5-0.9-1.6-1.2-2.5-0.7s-1.2,1.6-0.7,2.5s1.6,1.2,2.5,0.7l0,0
				C737.1,113,737.4,111.9,736.9,111L736.9,111z"/>
			<path class="st14" d="M750.5,103.1c-0.5-0.9-1.6-1.2-2.5-0.7s-1.2,1.6-0.7,2.5s1.6,1.2,2.5,0.7S751,104,750.5,103.1L750.5,103.1z
				"/>
			<path class="st14" d="M730.8,100.4c-0.5-0.9-1.6-1.2-2.5-0.7s-1.2,1.6-0.7,2.5s1.6,1.2,2.5,0.7l0,0
				C731,102.4,731.3,101.3,730.8,100.4L730.8,100.4z"/>
			<path class="st14" d="M744.3,92.5c-0.5-0.9-1.6-1.2-2.5-0.7s-1.2,1.6-0.7,2.5s1.6,1.2,2.5,0.7S744.8,93.4,744.3,92.5L744.3,92.5z
				"/>
			<path class="st14" d="M768.8,106c-0.5-0.9-1.6-1.2-2.5-0.7s-1.2,1.6-0.7,2.5s1.6,1.2,2.5,0.7S769.3,106.8,768.8,106L768.8,106z"
				/>
			<path class="st14" d="M782.3,98.1c-0.5-0.9-1.6-1.2-2.5-0.7s-1.2,1.6-0.7,2.5s1.6,1.2,2.5,0.7S782.8,99,782.3,98.1L782.3,98.1z"
				/>
			<path class="st14" d="M762.9,95.9c-0.5-0.9-1.6-1.2-2.5-0.7s-1.2,1.6-0.7,2.5s1.6,1.2,2.5,0.7C763.1,97.9,763.4,96.7,762.9,95.9
				L762.9,95.9z"/>
			<path class="st14" d="M776.4,88c-0.5-0.9-1.6-1.2-2.5-0.7s-1.2,1.6-0.7,2.5s1.6,1.2,2.5,0.7S776.9,88.9,776.4,88L776.4,88z"/>
			<path class="st14" d="M756.7,85.3c-0.5-0.9-1.6-1.2-2.5-0.7s-1.2,1.6-0.7,2.5s1.6,1.2,2.5,0.7S757.2,86.1,756.7,85.3L756.7,85.3z
				"/>
			<path class="st14" d="M770.2,77.4c-0.5-0.9-1.6-1.2-2.5-0.7s-1.2,1.6-0.7,2.5s1.6,1.2,2.5,0.7S770.7,78.3,770.2,77.4L770.2,77.4z
				"/>
			<circle class="st14" cx="522.3" cy="370.2" r="2.4"/>
			
				<ellipse transform="matrix(0.3162 -0.9487 0.9487 0.3162 -8.0526 742.4284)" class="st14" cx="511" cy="376.8" rx="2.4" ry="2.4"/>
			<circle class="st14" cx="499.6" cy="383.4" r="2.4"/>
			<g class="st15">
				<g>
					<g>
						<g>
							<defs>
								<circle id="SVGID_15_" cx="141.4" cy="394.2" r="56"/>
							</defs>
							<clipPath id="SVGID_16_">
								<use xlink:href="#SVGID_15_"  style="overflow:visible;"/>
							</clipPath>
							<g class="st16">
								
									<rect x="105.9" y="187" transform="matrix(0.2549 -0.967 0.967 0.2549 -232.5347 344.0164)" class="st14" width="2.2" height="271.8"/>
								
									<rect x="111.2" y="196.1" transform="matrix(0.2549 -0.967 0.967 0.2549 -237.3408 355.9355)" class="st14" width="2.2" height="271.8"/>
								
									<rect x="116.5" y="205.3" transform="matrix(0.2549 -0.967 0.967 0.2549 -242.2808 367.9012)" class="st14" width="2.2" height="271.8"/>
								
									<rect x="121.8" y="214.4" transform="matrix(0.2549 -0.967 0.967 0.2549 -247.1946 379.8628)" class="st14" width="2.2" height="271.8"/>
								
									<rect x="127.2" y="223.6" transform="matrix(0.2549 -0.967 0.967 0.2549 -252.0438 391.9034)" class="st14" width="2.2" height="271.8"/>
								
									<rect x="132.5" y="232.7" transform="matrix(0.2549 -0.967 0.967 0.2549 -256.8863 403.8406)" class="st14" width="2.2" height="271.8"/>
								
									<rect x="137.9" y="241.9" transform="matrix(0.2549 -0.967 0.967 0.2549 -261.7609 415.8847)" class="st14" width="2.2" height="271.8"/>
								
									<rect x="143.2" y="251" transform="matrix(0.2549 -0.967 0.967 0.2549 -266.5668 427.8037)" class="st14" width="2.2" height="271.8"/>
								
									<rect x="148.6" y="260.1" transform="matrix(0.2549 -0.967 0.967 0.2549 -271.4161 439.8443)" class="st14" width="2.2" height="271.8"/>
								
									<rect x="153.8" y="269.4" transform="matrix(0.2549 -0.967 0.967 0.2549 -276.4642 451.7372)" class="st14" width="2.2" height="271.8"/>
								
									<rect x="159.2" y="278.5" transform="matrix(0.2549 -0.967 0.967 0.2549 -281.2422 463.7531)" class="st14" width="2.2" height="271.8"/>
								
									<rect x="164.5" y="287.6" transform="matrix(0.2549 -0.967 0.967 0.2549 -286.0941 475.6931)" class="st14" width="2.2" height="271.8"/>
								
									<rect x="169.9" y="296.7" transform="matrix(0.2549 -0.967 0.967 0.2549 -290.9433 487.7337)" class="st14" width="2.2" height="271.8"/>
								
									<rect x="175.2" y="305.9" transform="matrix(0.2549 -0.967 0.967 0.2549 -295.7856 499.671)" class="st14" width="2.2" height="271.8"/>
								
									<rect x="180.6" y="315" transform="matrix(0.2549 -0.967 0.967 0.2549 -300.6423 511.7126)" class="st14" width="2.2" height="271.8"/>
								
									<rect x="185.8" y="324.3" transform="matrix(0.2549 -0.967 0.967 0.2549 -305.6905 523.6058)" class="st14" width="2.2" height="271.8"/>
								
									<rect x="191.1" y="333.4" transform="matrix(0.2549 -0.967 0.967 0.2549 -310.5788 535.5638)" class="st14" width="2.2" height="271.8"/>
							</g>
						</g>
					</g>
				</g>
			</g>
			<g class="st15">
				<g>
					<g>
						<g>
							<defs>
								
									<ellipse id="SVGID_17_" transform="matrix(0.7071 -0.7071 0.7071 0.7071 151.7134 667.2715)" cx="881.3" cy="150.5" rx="76.6" ry="76.6"/>
							</defs>
							<clipPath id="SVGID_18_">
								<use xlink:href="#SVGID_17_"  style="overflow:visible;"/>
							</clipPath>
							<g class="st17">
								
									<rect x="832.7" y="-133.1" transform="matrix(0.2549 -0.967 0.967 0.2549 570.5363 846.0043)" class="st14" width="3" height="371.7"/>
								
									<rect x="840" y="-120.6" transform="matrix(0.2549 -0.967 0.967 0.2549 563.8766 862.3312)" class="st14" width="3" height="371.7"/>
								
									<rect x="847.2" y="-107.9" transform="matrix(0.2549 -0.967 0.967 0.2549 557.0438 878.7679)" class="st14" width="3" height="371.7"/>
								
									<rect x="854.6" y="-95.4" transform="matrix(0.2549 -0.967 0.967 0.2549 550.4445 895.2001)" class="st14" width="3" height="371.7"/>
								
									<rect x="861.9" y="-82.9" transform="matrix(0.2549 -0.967 0.967 0.2549 543.8063 911.5502)" class="st14" width="3" height="371.7"/>
								
									<rect x="869.2" y="-70.5" transform="matrix(0.2549 -0.967 0.967 0.2549 537.1505 927.9028)" class="st14" width="3" height="371.7"/>
								
									<rect x="876.5" y="-58" transform="matrix(0.2549 -0.967 0.967 0.2549 530.5122 944.2529)" class="st14" width="3" height="371.7"/>
								
									<rect x="883.7" y="-45.4" transform="matrix(0.2549 -0.967 0.967 0.2549 523.7615 960.6503)" class="st14" width="3" height="371.7"/>
								
									<rect x="891" y="-32.9" transform="matrix(0.2549 -0.967 0.967 0.2549 517.0908 976.9919)" class="st14" width="3" height="371.7"/>
								
									<rect x="898.3" y="-20.4" transform="matrix(0.2549 -0.967 0.967 0.2549 510.4526 993.3419)" class="st14" width="3" height="371.7"/>
								
									<rect x="905.6" y="-7.9" transform="matrix(0.2549 -0.967 0.967 0.2549 503.8146 1009.6921)" class="st14" width="3" height="371.7"/>
								
									<rect x="913" y="4.7" transform="matrix(0.2549 -0.967 0.967 0.2549 497.1398 1026.2468)" class="st14" width="3" height="371.7"/>
								
									<rect x="920.3" y="17.2" transform="matrix(0.2549 -0.967 0.967 0.2549 490.5016 1042.5969)" class="st14" width="3" height="371.7"/>
								
									<rect x="927.6" y="29.7" transform="matrix(0.2549 -0.967 0.967 0.2549 483.8416 1058.9761)" class="st14" width="3" height="371.7"/>
								
									<rect x="934.9" y="42.2" transform="matrix(0.2549 -0.967 0.967 0.2549 477.1854 1075.3286)" class="st14" width="3" height="371.7"/>
								
									<rect x="942.1" y="54.7" transform="matrix(0.2549 -0.967 0.967 0.2549 470.5472 1091.6787)" class="st14" width="3" height="371.7"/>
								
									<rect x="949.4" y="67.1" transform="matrix(0.2549 -0.967 0.967 0.2549 463.9094 1108.0287)" class="st14" width="3" height="371.7"/>
							</g>
						</g>
					</g>
				</g>
			</g>
			<path class="st18" d="M472.8,183.5l52.4-30.5c4.8-2.8,6.4-9,3.6-13.8l0,0l0,0c-2.8-4.8-9-6.5-13.8-3.6L462.6,166
				c-4.8,2.8-6.5,9-3.6,13.8l0,0C461.8,184.7,468,186.3,472.8,183.5z"/>
			<path class="st19" d="M384.1,439.4l34.2-20c3.1-1.8,4.2-5.9,2.4-9l0,0l0,0c-1.8-3.2-5.9-4.2-9-2.4l0,0l-34.2,20
				c-3.2,1.8-4.2,5.9-2.4,9l0,0C376.9,440.2,380.9,441.2,384.1,439.4L384.1,439.4z"/>
			
				<linearGradient id="SVGID_19_" gradientUnits="userSpaceOnUse" x1="1054.7922" y1="394.566" x2="1042.7922" y2="336.066" gradientTransform="matrix(-0.864 0.5035 -0.5035 -0.864 1798.1516 -190.9623)">
				<stop  offset="0" style="stop-color:#FFC431"/>
				<stop  offset="1" style="stop-color:#FF8300"/>
			</linearGradient>
			<circle class="st20" cx="708.8" cy="22.3" r="18.8"/>
			
				<linearGradient id="SVGID_20_" gradientUnits="userSpaceOnUse" x1="1551.3104" y1="249.0681" x2="1539.3104" y2="190.5681" gradientTransform="matrix(-0.864 0.5035 -0.5035 -0.864 1798.1836 -190.9713)">
				<stop  offset="0" style="stop-color:#FFC431"/>
				<stop  offset="1" style="stop-color:#FF8300"/>
			</linearGradient>
			<circle class="st21" cx="353.1" cy="398" r="18.8"/>
			
				<linearGradient id="SVGID_21_" gradientUnits="userSpaceOnUse" x1="1568.5271" y1="144.9789" x2="1566.1272" y2="133.2789" gradientTransform="matrix(-0.864 0.5035 -0.5035 -0.864 1813.4713 -286.2104)">
				<stop  offset="0" style="stop-color:#FFC431"/>
				<stop  offset="1" style="stop-color:#FF8300"/>
			</linearGradient>
			<circle class="st22" cx="389.4" cy="382.9" r="3.8"/>
			
				<linearGradient id="SVGID_22_" gradientUnits="userSpaceOnUse" x1="1333.9863" y1="202.7551" x2="1325.3464" y2="160.6351" gradientTransform="matrix(-0.864 0.5035 -0.5035 -0.864 1813.4713 -286.2104)">
				<stop  offset="0" style="stop-color:#FFC431"/>
				<stop  offset="1" style="stop-color:#FF8300"/>
			</linearGradient>
			<circle class="st23" cx="573.7" cy="226.9" r="13.5"/>
			
				<linearGradient id="SVGID_23_" gradientUnits="userSpaceOnUse" x1="1299.9808" y1="223.6303" x2="1296.1407" y2="204.9103" gradientTransform="matrix(-0.864 0.5035 -0.5035 -0.864 1813.4713 -286.2104)">
				<stop  offset="0" style="stop-color:#FFC431"/>
				<stop  offset="1" style="stop-color:#FF8300"/>
			</linearGradient>
			<circle class="st24" cx="584.3" cy="182.5" r="6"/>
			
				<linearGradient id="SVGID_24_" gradientUnits="userSpaceOnUse" x1="1276.0614" y1="162.82" x2="1264.0614" y2="104.33" gradientTransform="matrix(-0.864 0.5035 -0.5035 -0.864 1798.1686 -190.9711)">
				<stop  offset="0" style="stop-color:#FF2F7F"/>
				<stop  offset="0.16" style="stop-color:#FF3879"/>
				<stop  offset="0.41" style="stop-color:#FF4F6A"/>
				<stop  offset="0.72" style="stop-color:#FF7450"/>
				<stop  offset="1" style="stop-color:#FF9B36"/>
			</linearGradient>
			<circle class="st25" cx="634.3" cy="333.9" r="18.8"/>
			
				<linearGradient id="SVGID_25_" gradientUnits="userSpaceOnUse" x1="1607.2856" y1="379.2209" x2="1595.2856" y2="320.7209" gradientTransform="matrix(-0.864 0.5035 -0.5035 -0.864 1813.4713 -286.2104)">
				<stop  offset="0" style="stop-color:#68C5FF"/>
				<stop  offset="1" style="stop-color:#3239FF"/>
			</linearGradient>
			<circle class="st26" cx="254.5" cy="218.5" r="18.8"/>
			
				<linearGradient id="SVGID_26_" gradientUnits="userSpaceOnUse" x1="1728.5131" y1="207.2456" x2="1719.873" y2="165.1256" gradientTransform="matrix(-0.864 0.5035 -0.5035 -0.864 1813.4713 -286.2104)">
				<stop  offset="0" style="stop-color:#FF9B36"/>
				<stop  offset="0.16" style="stop-color:#FF7A48"/>
				<stop  offset="0.44" style="stop-color:#FF4665"/>
				<stop  offset="0.68" style="stop-color:#FF207A"/>
				<stop  offset="0.88" style="stop-color:#FF0986"/>
				<stop  offset="1" style="stop-color:#FF008B"/>
			</linearGradient>
			<circle class="st27" cx="230.6" cy="421.7" r="13.5"/>
			
				<linearGradient id="SVGID_27_" gradientUnits="userSpaceOnUse" x1="1689.9961" y1="159.1231" x2="1686.156" y2="140.4031" gradientTransform="matrix(-0.864 0.5035 -0.5035 -0.864 1813.4713 -286.2104)">
				<stop  offset="0" style="stop-color:#FF9B36"/>
				<stop  offset="0.16" style="stop-color:#FF7A48"/>
				<stop  offset="0.44" style="stop-color:#FF4665"/>
				<stop  offset="0.68" style="stop-color:#FF207A"/>
				<stop  offset="0.88" style="stop-color:#FF0986"/>
				<stop  offset="1" style="stop-color:#FF008B"/>
			</linearGradient>
			<circle class="st28" cx="279.8" cy="434.6" r="6"/>
			
				<linearGradient id="SVGID_28_" gradientUnits="userSpaceOnUse" x1="1538.3101" y1="484.5403" x2="1532.55" y2="456.4603" gradientTransform="matrix(-0.864 0.5035 -0.5035 -0.864 1798.1582 -190.9682)">
				<stop  offset="0" style="stop-color:#68C5FF"/>
				<stop  offset="1" style="stop-color:#3239FF"/>
			</linearGradient>
			<circle class="st29" cx="235" cy="176" r="9"/>
			
				<linearGradient id="SVGID_29_" gradientUnits="userSpaceOnUse" x1="1323.3241" y1="155.1315" x2="1318.524" y2="131.7315" gradientTransform="matrix(-0.864 0.5035 -0.5035 -0.864 1798.1487 -190.9487)">
				<stop  offset="0" style="stop-color:#FF2F7F"/>
				<stop  offset="0.16" style="stop-color:#FF3879"/>
				<stop  offset="0.41" style="stop-color:#FF4F6A"/>
				<stop  offset="0.72" style="stop-color:#FF7450"/>
				<stop  offset="1" style="stop-color:#FF9B36"/>
			</linearGradient>
			<circle class="st30" cx="585" cy="350.6" r="7.5"/>
			
				<linearGradient id="SVGID_30_" gradientUnits="userSpaceOnUse" x1="1141.2803" y1="329.8303" x2="1136.9703" y2="308.7702" gradientTransform="matrix(-0.864 0.5035 -0.5035 -0.864 1813.4713 -286.2104)">
				<stop  offset="0" style="stop-color:#FFC431"/>
				<stop  offset="1" style="stop-color:#FF8300"/>
			</linearGradient>
			<circle class="st31" cx="668.8" cy="11.8" r="6.8"/>
		</g>
	</g>
</g>
</svg>
