<?xml version="1.0" encoding="utf-8"?>
<!-- Generator: Adobe Illustrator 24.0.1, SVG Export Plug-In . SVG Version: 6.00 Build 0)  -->
<svg version="1.1" id="Capa_1" xmlns="http://www.w3.org/2000/svg" xmlns:xlink="http://www.w3.org/1999/xlink" x="0px" y="0px"
	 viewBox="0 0 631.8 26.9" style="enable-background:new 0 0 631.8 26.9;" xml:space="preserve">
<style type="text/css">
	.st0{fill:#0065E9;}
</style>
<title>line_break</title>
<rect x="603.7" y="0.7" class="st0" width="28" height="1"/>
<rect x="529.9" y="0.7" class="st0" width="26.2" height="1"/>
<rect y="-0.1" class="st0" width="15.3" height="1"/>
<rect x="21.5" y="-0.1" class="st0" width="31.2" height="1"/>
<g>
	<path class="st0" d="M169.5,0.9H282c1.9,0,3.7,0.7,5,2.1l21.2,21.1c1.7,1.7,4,2.7,6.4,2.7l0,0c2.4,0,4.7-1,6.4-2.7l20.3-20.3
		c1.3-1.3,3.1-2.1,5-2.1h169.2v-1H346.4c-2.2,0-4.2,0.8-5.7,2.4l-20.3,20.3c-1.5,1.5-3.6,2.4-5.7,2.4l0,0c-2.2,0-4.2-0.8-5.7-2.4
		L287.9,2.3c-1.5-1.5-3.6-2.4-5.7-2.4H169.6L169.5,0.9L169.5,0.9z"/>
	<rect x="92.6" y="-0.1" class="st0" width="61.6" height="1"/>
</g>
</svg>
