<?xml version="1.0" encoding="utf-8"?>
<!-- Generator: Adobe Illustrator 24.0.1, SVG Export Plug-In . SVG Version: 6.00 Build 0)  -->
<svg version="1.1" id="Capa_1" xmlns="http://www.w3.org/2000/svg" xmlns:xlink="http://www.w3.org/1999/xlink" x="0px" y="0px"
	 viewBox="0 0 543.3 139.1" style="enable-background:new 0 0 543.3 139.1;" xml:space="preserve">
<style type="text/css">
	.st0{fill:#1D1D1B;}
	.st1{fill:url(#SVGID_1_);}
	.st2{fill:url(#SVGID_2_);}
	.st3{fill:url(#SVGID_3_);}
</style>
<title>logo_sca_1</title>
<g>
	<path class="st0" d="M94.4,132c0.5-0.2,0.9-0.3,1.4-0.5c0.3-0.1,0.6-0.2,0.9-0.3l0.5-0.2c0.2-0.1,0.5-0.2,0.7-0.3
		c0.5-0.2,1-0.4,1.5-0.7l0.6-0.3c0.6-0.3,1.2-0.6,1.8-0.9l0.2-0.1c0.6-0.3,1.3-0.7,2-1.1c2-1.2,3.9-2.5,5.7-3.9
		c0.6-0.4,1.1-0.9,1.7-1.4l0.1-0.1c0.5-0.4,0.9-0.9,1.5-1.4l0.3-0.3c0.4-0.4,0.8-0.8,1.2-1.2l0.5-0.5c0.3-0.3,0.6-0.6,0.9-1
		c0.3-0.3,0.5-0.6,0.8-0.9c0.2-0.2,0.3-0.4,0.5-0.6l0.1-0.1c0.3-0.4,0.6-0.8,0.9-1.2l0.3-0.5c0.4-0.5,0.7-1,1.1-1.5l0.1-0.2
		c3.5-5.1,5.9-10.7,7.3-16.6l0.1-0.3c0.1-0.6,0.3-1.3,0.4-1.9l0.1-0.8c0.1-0.5,0.2-0.9,0.2-1.4c0.1-0.4,0.1-0.8,0.1-1.2l0-0.4
		c0-0.2,0-0.4,0.1-0.6c0.1-0.6,0.1-1.3,0.1-1.9l0-0.5c0-0.7,0-1.5,0-2.3l0-0.2c0-3.4-0.4-6.7-1.1-10c0-0.2-0.1-0.4-0.1-0.6l-0.5-2
		c-0.6-2.3-1.4-4.5-2.2-6.5c-0.6-1.3-1.6-2.3-2.9-2.8c-1.3-0.5-2.8-0.5-4.1,0c-1.3,0.6-2.3,1.6-2.8,2.9c-0.5,1.3-0.5,2.8,0,4.1
		c1.1,2.5,1.9,5.2,2.4,7.9c0.1,0.4,0.2,0.8,0.2,1.3c0.1,0.4,0.1,0.7,0.2,1.1c0,0.3,0.1,0.6,0.1,0.9c0.1,0.5,0.1,1,0.1,1.6l0,0.4
		c0,0.7,0.1,1.3,0.1,2.1c0,0.7,0,1.4-0.1,2.1l0,0.2c0,0.6-0.1,1.1-0.1,1.7l-0.1,0.6c-0.1,0.4-0.1,0.9-0.2,1.3
		c-0.2,1.4-0.5,2.8-0.9,4.1c-0.5,1.8-1.1,3.7-1.9,5.5c-0.5,1.1-1,2.1-1.6,3.2l-0.5,0.9c-0.1,0.2-0.2,0.4-0.3,0.6l-0.2,0.3
		c-0.3,0.4-0.5,0.9-0.8,1.3l-0.1,0.1c-1.7,2.5-3.8,4.8-6.1,7l-0.3,0.3c-0.4,0.3-0.7,0.6-1.2,1c-0.3,0.2-0.5,0.4-0.8,0.6
		c-0.2,0.2-0.5,0.3-0.7,0.5c-0.5,0.3-0.9,0.7-1.4,1l-0.3,0.2c-0.7,0.4-1.3,0.8-1.9,1.2c-3.1,1.8-6.4,3.1-9.8,4l-0.6,0.2
		c-0.5,0.1-1,0.2-1.5,0.3c-0.4,0.1-0.8,0.2-1.3,0.2l-0.4,0.1c-0.3,0-0.5,0.1-0.8,0.1c-0.8,0.1-1.6,0.2-2.4,0.2c-0.2,0-0.4,0-0.6,0
		l-0.5,0c-0.9,0-1.7,0.1-2.6,0l-0.4,0c-0.6,0-1.1,0-1.7-0.1c-0.3,0-0.5,0-0.8-0.1l-0.3,0c-0.6-0.1-1.2-0.1-1.8-0.2
		c-0.2,0-0.4-0.1-0.6-0.1l-0.4-0.1c-0.6-0.1-1.2-0.2-1.8-0.4c-0.2-0.1-0.5-0.1-0.7-0.2l-0.4-0.1c-0.6-0.2-1.1-0.3-1.6-0.5
		c-0.3-0.1-0.5-0.2-0.8-0.3l-0.3-0.1c-0.6-0.2-1.1-0.4-1.6-0.6c-2.6-1-5-2.3-7.3-3.8l-0.1-0.1c-0.9-0.5-1.8-0.8-2.8-0.8
		c-0.4,0-0.8,0-1.2,0.1c-1.4,0.3-2.6,1.1-3.3,2.3c-1.5,2.4-0.9,5.6,1.5,7.2c2.7,1.8,5.7,3.4,8.9,4.7l0.3,0.1
		c0.4,0.2,0.8,0.3,1.2,0.5l0.5,0.2c0.4,0.2,0.9,0.3,1.3,0.4l0.4,0.1c0.5,0.1,0.9,0.3,1.4,0.4l0.3,0.1c0.5,0.1,1,0.3,1.5,0.4l0.2,0.1
		c0.5,0.1,1.1,0.2,1.6,0.3l0.2,0c0.5,0.1,1.1,0.2,1.6,0.3l0.1,0c0.6,0.1,1.1,0.2,1.7,0.2l0.1,0c0.6,0.1,1.1,0.1,1.7,0.2l0.2,0
		c0.5,0,1.1,0.1,1.6,0.1l0.2,0c0.5,0,1,0,1.6,0.1l1.1,0c0.3,0,0.6,0,1,0c0.2,0,0.3,0,0.5,0l0.2,0c2.9-0.1,5.7-0.5,8.4-1
		c0.3-0.1,0.6-0.1,1-0.2c0.2,0,0.3-0.1,0.5-0.1l1.1-0.3c0.6-0.2,1.2-0.3,1.9-0.5L94.4,132z"/>
	<path class="st0" d="M106.2,98.3c1.1-3,3.1-10.8-1.6-18.4l-0.3-0.5h2.9l5.4-24.4H95.4c-1.9,0-3.5,1.3-4,3.2l-0.1,0.3
		c-0.3,1.2,0,2.4,0.8,3.4c0.8,1,1.9,1.5,3.2,1.5l8.2,0l-2.3,9.4l-21.5,0c-1.3,0-2.4,0.9-2.6,2.1c-0.1,0.7,0,1.4,0.4,1.9
		c0.4,0.6,1,0.9,1,0.9c0.2,0.1,0.5,0.2,0.7,0.2c0.1,0,0.2,0,0.4,0l0.7,0l7.5,0c6.9,0,12.5,5.7,12.5,12.5c0,6.8-5.6,12.5-12.5,12.5
		l-2.1,0l-0.1,0l-44.9,0c-1.3,0-2.5,0.6-3.3,1.6c-0.8,1-1.1,2.3-0.9,3.5c0.4,1.9,2.2,3.3,4.2,3.3h44.8c0.3,0,0.6,0,0.8-0.1l0.1,0
		c5.2-0.3,9.6-1.7,13.1-4.4C102.6,104.8,104.8,101.9,106.2,98.3z"/>
	<linearGradient id="SVGID_1_" gradientUnits="userSpaceOnUse" x1="43.8676" y1="74.0655" x2="87.1785" y2="74.0655">
		<stop  offset="0" style="stop-color:#F18C00"/>
		<stop  offset="1" style="stop-color:#C9460A"/>
	</linearGradient>
	<path class="st1" d="M86.3,56.5c-0.8-1-2-1.6-3.3-1.6l-0.8,0c-11.9,0-20.2,5.8-23.4,16.4L58.4,73c-0.6,2.4-2,3.7-4,3.7h-2.6
		c-1.9,0-3.5,1.3-3.9,3.1c-0.2,1.1,0.1,2.3,0.8,3.2c0.7,0.9,1.8,1.4,3,1.4h4.1l0,0h3.1c0.8,0,1.5,0.6,1.6,1.3c0.1,0.5,0,0.9-0.3,1.3
		c-0.3,0.4-0.7,0.6-1.2,0.6H46.9c-1.5,0-2.8,1.1-3,2.6c-0.1,0.8,0.2,1.6,0.7,2.2c0.5,0.6,1.3,0.9,2.1,0.9h4l0,0l31.2,0
		c0.8,0,1.6-0.3,2.1-0.9c0.5-0.6,0.8-1.4,0.7-2.2c-0.1-1.4-1.5-2.6-3-2.6h-4.3c-3.9-0.1-6.9-1.3-8.9-3.7c-2-2.4-2.7-5.8-1.9-10
		c2.1-6.9,7.3-10.4,15.4-10.4l0.8,0c2,0,3.6-1.3,4.1-3.2C87.4,58.8,87.1,57.5,86.3,56.5z"/>
	<linearGradient id="SVGID_2_" gradientUnits="userSpaceOnUse" x1="29.4289" y1="64.3862" x2="101.8944" y2="64.3862">
		<stop  offset="0" style="stop-color:#F18C00"/>
		<stop  offset="1" style="stop-color:#C9460A"/>
	</linearGradient>
	<path class="st2" d="M101.4,46.8c0.6-1.3,0.6-2.7,0.1-4.1c-0.5-1.3-1.5-2.4-2.8-2.9c-0.4-0.2-0.7-0.3-1.2-0.5l-0.3-0.1
		c-0.6-0.3-1.3-0.5-1.9-0.7l-0.6-0.2c-0.5-0.2-0.9-0.3-1.4-0.5c-0.4-0.1-0.7-0.2-1.1-0.3c-0.3-0.1-0.6-0.2-0.8-0.2
		c-0.4-0.1-0.9-0.2-1.3-0.3l-0.4-0.1c-1.7-0.4-3.5-0.7-5.3-0.9c-0.1,0-0.2,0-0.3,0c-1.3-0.1-2.6-0.2-4.1-0.2l-0.9,0l-0.5,0
		c-0.2,0-0.3,0-0.5,0l-1.2,0c-0.4,0-0.7,0-1.1,0.1l-1,0.1c-0.3,0-0.6,0.1-0.9,0.1l-2.2,0.3l-1.5,0.2c-0.1,0-0.2,0-0.3,0.1l-0.7,0.1
		c-2.7,0.5-5.4,1.3-8,2.3L61.1,39c-0.2,0.1-0.4,0.2-0.6,0.2l-0.2,0.1c-0.4,0.1-0.7,0.3-1.1,0.5l-1.7,0.8c-1.1,0.5-2.2,1.1-3.5,1.8
		l-0.9,0.5c-0.4,0.3-0.9,0.5-1.3,0.8l-1.2,0.8c-0.1,0.1-0.3,0.2-0.4,0.3c-0.2,0.1-0.4,0.3-0.6,0.4l-0.7,0.5
		c-0.9,0.7-1.7,1.4-2.6,2.1l-0.8,0.7c-2,1.8-3.8,3.8-5.5,5.9l-0.1,0.2c-2.3,2.9-4.3,6.1-5.9,9.5c-0.9,1.8-1.6,3.7-2.2,5.6
		c-0.2,0.7-0.4,1.4-0.7,2.2l-0.1,0.4c0,0.1-0.1,0.3-0.1,0.4l-0.1,0.5c0,0.1-0.1,0.3-0.1,0.4c0,0.1-0.1,0.3-0.1,0.4l-0.1,0.3
		c-1,4.3-1.3,8.7-1.1,13.1c0,0.1,0,0.2,0,0.4l0,0.3c0.3,2.9,2.7,5,5.6,4.8c2.9-0.2,5.1-2.8,4.9-5.7l0-0.3c-0.1-2.2,0-4.4,0.2-6.6
		l0.1-0.5c0.5-4,1.7-7.9,3.5-11.7c0.1-0.3,0.3-0.6,0.4-0.8c0.2-0.3,0.3-0.7,0.5-1c0.2-0.3,0.3-0.6,0.5-0.8l0.1-0.2
		c0.2-0.3,0.3-0.6,0.5-0.8c0.3-0.4,0.5-0.9,0.8-1.3c0.3-0.4,0.6-0.9,1-1.3c0.4-0.5,0.7-0.9,1.1-1.4c0.3-0.4,0.7-0.8,1.1-1.2l0.1-0.1
		c0.4-0.4,0.7-0.8,1.1-1.3l0.4-0.4c0.2-0.2,0.5-0.5,0.7-0.7l0.5-0.5c0.7-0.6,1.3-1.2,2-1.7c0.7-0.6,1.4-1.1,2.1-1.6l0.3-0.2
		c0.3-0.2,0.6-0.4,0.9-0.6l0.7-0.4c0.4-0.2,0.8-0.5,1.2-0.7c0.4-0.2,0.7-0.4,1.1-0.6c0.3-0.2,0.6-0.3,1-0.5c0.5-0.2,0.9-0.4,1.4-0.6
		l0.5-0.2c0.5-0.2,1-0.4,1.6-0.6c0.3-0.1,0.6-0.2,0.9-0.3c0.3-0.1,0.6-0.2,0.9-0.3c0.4-0.1,0.8-0.2,1.2-0.4l0.6-0.2
		c0.8-0.2,1.7-0.4,2.6-0.6c0.4-0.1,0.7-0.1,1.1-0.2c0.5-0.1,0.9-0.1,1.4-0.2l0.2,0c0.3,0,0.6-0.1,0.8-0.1c0.3,0,0.5,0,0.8-0.1
		c0.4,0,0.8,0,1.1-0.1c0.3,0,0.6,0,0.8,0c0.3,0,0.7,0,1,0c0.4,0,0.8,0,1.2,0c0.3,0,0.6,0,0.8,0c0.4,0,0.8,0.1,1.2,0.1
		c0.3,0,0.5,0,0.8,0.1c0.4,0,0.8,0.1,1.2,0.1c0.3,0,0.6,0.1,0.8,0.1c0.4,0.1,0.8,0.1,1.1,0.2c0.3,0.1,0.6,0.1,0.9,0.2
		c0.4,0.1,0.7,0.2,1.1,0.2c0.3,0.1,0.6,0.2,0.9,0.2c0.3,0.1,0.7,0.2,1,0.3c0.3,0.1,0.7,0.2,1,0.3c0.3,0.1,0.6,0.2,0.9,0.3
		c0.3,0.1,0.7,0.2,1,0.4c0.5,0.2,1,0.4,1.4,0.6c1.3,0.6,2.7,0.6,4.1,0.1C99.8,49.1,100.9,48.1,101.4,46.8z"/>
	<g>
		<linearGradient id="SVGID_3_" gradientUnits="userSpaceOnUse" x1="138.6391" y1="85.5631" x2="336.2446" y2="85.5631">
			<stop  offset="0" style="stop-color:#F18C00"/>
			<stop  offset="1" style="stop-color:#C9460A"/>
		</linearGradient>
		<path class="st3" d="M147.6,110.9c-3.7-1-6.7-2.3-9-3.8l5.5-10.5c2.5,1.6,5.2,2.8,8,3.6c2.8,0.8,5.7,1.2,8.5,1.2
			c2.7,0,4.8-0.4,6.3-1.2c1.5-0.8,2.2-1.9,2.2-3.2c0-1.2-0.7-2.1-2-2.8c-1.3-0.7-3.4-1.4-6.3-2.1c-3.2-0.8-5.9-1.7-8-2.6
			c-2.1-0.9-4-2.2-5.5-4c-1.5-1.8-2.3-4.2-2.3-7.1c0-3.5,1-6.6,2.9-9.3c1.9-2.7,4.7-4.7,8.3-6.2c3.6-1.5,7.8-2.2,12.6-2.2
			c3.5,0,6.8,0.4,9.9,1.1c3.1,0.7,5.7,1.8,7.9,3.2l-5.1,10.4c-1.9-1.2-4.1-2.2-6.4-2.8c-2.3-0.6-4.7-1-7.2-1c-2.8,0-5,0.4-6.6,1.3
			c-1.6,0.9-2.4,2.1-2.4,3.5c0,1.2,0.7,2.2,2.1,2.8c1.4,0.7,3.5,1.4,6.4,2.1c3.2,0.8,5.9,1.6,8,2.5c2.1,0.8,3.9,2.1,5.4,3.9
			c1.5,1.7,2.3,4,2.3,6.9c0,3.5-1,6.6-2.9,9.2c-2,2.7-4.7,4.7-8.4,6.2c-3.6,1.5-7.8,2.2-12.6,2.2
			C155.2,112.3,151.3,111.8,147.6,110.9z M195.5,109.8c-3-1.4-5.4-3.5-7.1-6.1c-1.7-2.6-2.5-5.7-2.5-9.2c0-4.2,1-8,3-11.3
			c2-3.4,4.9-6,8.5-7.9c3.6-1.9,7.7-2.9,12.3-2.9c4.3,0,8.1,0.9,11.3,2.7c3.2,1.8,5.5,4.4,6.9,7.7l-11.5,5.5
			c-1.4-3.4-3.9-5.1-7.4-5.1c-2.7,0-5,1-6.8,3c-1.8,2-2.7,4.5-2.7,7.7c0,2.3,0.6,4.1,1.9,5.4c1.3,1.3,3.2,2,5.6,2
			c1.8,0,3.4-0.4,4.7-1.2c1.4-0.8,2.5-2.1,3.5-3.8l9.8,5.9c-1.8,3.1-4.4,5.6-7.8,7.3c-3.3,1.7-7.1,2.6-11.3,2.6
			C202.1,112,198.5,111.3,195.5,109.8z M274.7,73l-7.6,38.4h-12.8l0.8-3.6c-3.1,2.8-6.8,4.3-11.1,4.3c-2.8,0-5.5-0.7-8-2.1
			c-2.5-1.4-4.5-3.4-6-6.1c-1.5-2.6-2.3-5.8-2.3-9.3c0-4.2,0.9-7.9,2.8-11.3c1.9-3.4,4.4-6,7.6-8c3.2-1.9,6.7-2.9,10.4-2.9
			c5.6,0,9.5,1.7,11.8,5.2l0.9-4.6H274.7z M255.2,98.2c1.7-2,2.5-4.6,2.5-7.7c0-2.3-0.6-4.1-1.9-5.4c-1.3-1.3-3.1-2-5.3-2
			c-2.7,0-4.9,1-6.6,3c-1.7,2-2.6,4.6-2.6,7.8c0,2.3,0.6,4,1.9,5.3c1.3,1.3,3.1,1.9,5.3,1.9C251.3,101.1,253.5,100.2,255.2,98.2z
			 M282.8,58.8h13.5l-10.5,52.6h-13.5L282.8,58.8z M335.5,95.5h-28.2c0.5,4.2,3.4,6.2,8.7,6.2c1.7,0,3.4-0.3,5-0.8
			c1.6-0.5,3-1.3,4.3-2.3l5.6,8.4c-4.5,3.3-9.9,5-16.4,5c-4.1,0-7.6-0.7-10.7-2.2c-3.1-1.4-5.5-3.5-7.2-6.1
			c-1.7-2.6-2.5-5.7-2.5-9.2c0-4.2,1-8,2.9-11.4c2-3.4,4.7-6,8.2-7.9c3.5-1.9,7.5-2.9,12.1-2.9c3.8,0,7.2,0.7,10,2.1
			c2.9,1.4,5.1,3.4,6.6,5.9c1.5,2.5,2.3,5.5,2.3,8.9C336.2,91,336,93.1,335.5,95.5z M311.2,83.6c-1.5,1.2-2.5,2.8-3.2,4.8h15.8
			c0-2-0.6-3.6-1.9-4.8c-1.3-1.2-3.1-1.7-5.2-1.7C314.5,81.9,312.7,82.5,311.2,83.6z"/>
		<path class="st0" d="M476.5,73l-0.9,4.6c-2.3-3.5-6.2-5.2-11.8-5.2c-3.8,0-7.3,1-10.4,2.9c-3.2,1.9-5.7,4.6-7.6,8
			c-1.9,3.4-2.8,7.1-2.8,11.3c0,3.6,0.8,6.7,2.3,9.3c1.5,2.6,3.5,4.7,6,6.1c2.5,1.4,5.1,2.1,8,2.1c4.3,0,8.1-1.4,11.1-4.3l-0.8,3.6
			h12.8L490,73H476.5z M470.5,98.2c-1.7,2-3.9,3-6.6,3c-2.3,0-4-0.6-5.3-1.9c-1.3-1.3-1.9-3.1-1.9-5.3c0-3.2,0.9-5.8,2.6-7.8
			c1.7-2,3.9-3,6.6-3c2.3,0,4,0.7,5.3,2c1.3,1.3,1.9,3.1,1.9,5.4C473,93.6,472.2,96.2,470.5,98.2z M353.4,84.8
			c0,0.8,0.5,1.3,1.5,1.7c1,0.4,2.6,0.7,4.8,1.2c2.7,0.5,5,1,6.8,1.6s3.4,1.6,4.7,3c1.3,1.4,2,3.4,2,5.8c0,4.4-1.9,7.9-5.7,10.3
			c-3.8,2.4-8.7,3.6-14.7,3.6c-3.3,0-6.5-0.4-9.5-1.1c-3-0.7-5.4-1.6-7.1-2.7l4.9-9.4c1.7,1.1,3.8,1.9,6.2,2.6c2.4,0.6,4.8,1,7.1,1
			c4.1,0,6.2-0.9,6.2-2.8c0-0.8-0.5-1.3-1.5-1.7c-1-0.4-2.5-0.7-4.6-1c-2.8-0.5-5.2-1.1-7-1.7c-1.8-0.6-3.4-1.6-4.8-3
			c-1.4-1.4-2.1-3.4-2.1-5.9c0-4.4,1.9-7.9,5.7-10.3c3.8-2.4,8.7-3.6,14.8-3.6c2.7,0,5.4,0.3,7.9,0.8c2.5,0.5,4.8,1.3,6.7,2.2
			l-4.7,9.4c-3.2-1.9-7-2.9-11.4-2.9c-2.1,0-3.6,0.3-4.6,0.8C353.9,83.2,353.4,83.9,353.4,84.8z M446.9,73l-21,38.4h-13.3L409,90.5
			l-11.3,20.9h-13.2L378.1,73h12.3l3.5,23.1L406.5,73h11.5l3.5,23.1L434.3,73H446.9z M536.1,72.3c-3,0-5.6,2-6.4,4.7
			c-1-1-2.2-1.9-3.4-2.6c-2.5-1.4-5.1-2.1-8-2.1c-4.3,0-8.1,1.4-11.1,4.3L508,73h-12.8l-10.4,52.1h13.5l3.7-18.3
			c2.3,3.5,6.2,5.2,11.8,5.2c3.8,0,7.3-1,10.4-2.9c3.2-1.9,5.7-4.6,7.6-8c1.9-3.4,2.8-7.2,2.8-11.4c0-1.5-0.2-2.9-0.4-4.2
			c0.6,0.2,1.3,0.3,2,0.3c3.7,0,6.8-3,6.8-6.8S539.9,72.3,536.1,72.3z M518.4,98.2c-1.7,2-3.9,3-6.6,3c-2.3,0-4-0.6-5.3-1.9
			c-1.3-1.3-1.9-3.1-1.9-5.3c0-3.2,0.9-5.8,2.6-7.8c1.7-2,3.9-3,6.6-3c2.3,0,4,0.7,5.3,2c1.3,1.3,1.9,3.1,1.9,5.4
			C520.9,93.6,520.1,96.2,518.4,98.2z M525,67.8c0-1.9,1.5-3.4,3.4-3.4s3.4,1.5,3.4,3.4c0,1.9-1.5,3.4-3.4,3.4S525,69.7,525,67.8z"
			/>
	</g>
</g>
</svg>
