<?xml version="1.0" encoding="utf-8"?>
<!-- Generator: Adobe Illustrator 24.0.1, SVG Export Plug-In . SVG Version: 6.00 Build 0)  -->
<svg version="1.1" id="Capa_1" xmlns="http://www.w3.org/2000/svg" xmlns:xlink="http://www.w3.org/1999/xlink" x="0px" y="0px"
	 viewBox="0 0 101 683.8" style="enable-background:new 0 0 101 683.8;" xml:space="preserve">
<style type="text/css">
	.st0{fill:url(#SVGID_1_);}
	.st1{fill:#FFFFFF;}
	.st2{fill:url(#SVGID_2_);}
	.st3{fill:url(#SVGID_3_);}
	.st4{fill:url(#SVGID_4_);}
	.st5{opacity:0.2;}
	.st6{fill:#63368C;}
	.st7{fill:url(#SVGID_5_);}
	.st8{fill:url(#SVGID_6_);}
	.st9{fill:url(#SVGID_7_);}
	.st10{fill:url(#SVGID_8_);}
	.st11{fill:url(#SVGID_9_);}
	.st12{fill:url(#SVGID_10_);}
	.st13{fill:url(#SVGID_11_);}
	.st14{opacity:0.4;}
	.st15{fill:#E4D3B4;}
	.st16{opacity:0.4;fill:#E4D3B4;enable-background:new    ;}
	.st17{fill:url(#SVGID_12_);}
	.st18{fill:url(#SVGID_13_);}
	.st19{fill:url(#SVGID_14_);}
	.st20{fill:url(#SVGID_15_);}
	.st21{fill:url(#SVGID_16_);}
	.st22{fill:url(#SVGID_17_);}
	.st23{fill:url(#SVGID_18_);}
	.st24{fill:url(#SVGID_19_);}
	.st25{fill:url(#SVGID_20_);}
	.st26{fill:url(#SVGID_21_);}
	.st27{fill:url(#SVGID_22_);}
	.st28{fill:url(#SVGID_23_);}
	.st29{fill:url(#SVGID_24_);}
	.st30{fill:url(#SVGID_25_);}
	.st31{fill:url(#SVGID_26_);}
	.st32{fill:url(#SVGID_27_);}
	.st33{fill:url(#SVGID_28_);}
	.st34{fill:url(#SVGID_29_);}
	.st35{fill:url(#SVGID_30_);}
	.st36{fill:url(#SVGID_31_);}
	.st37{fill:url(#SVGID_32_);}
	.st38{fill:url(#SVGID_33_);}
	.st39{fill:url(#SVGID_34_);}
	.st40{fill:url(#SVGID_35_);}
	.st41{fill:url(#SVGID_36_);}
	.st42{fill:url(#SVGID_37_);}
	.st43{opacity:0.3;fill:#E94A4E;enable-background:new    ;}
	.st44{fill:url(#SVGID_38_);}
</style>
<title>rocket</title>
<linearGradient id="SVGID_1_" gradientUnits="userSpaceOnUse" x1="50.5476" y1="396.7433" x2="50.5476" y2="633.6962" gradientTransform="matrix(1 0 0 1 0 -158)">
	<stop  offset="0" style="stop-color:#F3D300"/>
	<stop  offset="1" style="stop-color:#EF7909"/>
</linearGradient>
<path class="st0" d="M64.9,203.5c0,7.9-14.2,250.4-14.2,250.4L36.2,203.5c-0.2-7.9,6-14.5,14-14.7c7.9-0.2,14.5,6,14.7,14
	C64.9,203,64.9,203.2,64.9,203.5z"/>
<path class="st1" d="M60,195.7c0,4.3-9.4,103.9-9.4,103.9s-9.5-99.6-9.5-103.9s4.2-7.8,9.4-7.8S60,191.4,60,195.7z"/>
<linearGradient id="SVGID_2_" gradientUnits="userSpaceOnUse" x1="50.55" y1="414.5" x2="50.55" y2="346.3964" gradientTransform="matrix(1 0 0 1 0 -158)">
	<stop  offset="0" style="stop-color:#FCEA10"/>
	<stop  offset="0.19" style="stop-color:#FADA0F"/>
	<stop  offset="0.56" style="stop-color:#F6B20D"/>
	<stop  offset="1" style="stop-color:#EF7909"/>
</linearGradient>
<path class="st2" d="M55.1,192.8c0,2.5-4.6,63.7-4.6,63.7S46,195.3,46,192.8c0.1-2.5,2.3-4.5,4.8-4.4
	C53.1,188.6,55,190.5,55.1,192.8L55.1,192.8z"/>
<linearGradient id="SVGID_3_" gradientUnits="userSpaceOnUse" x1="-5050.48" y1="344.15" x2="-5050.48" y2="342.87" gradientTransform="matrix(-1 0 0 1 -5024.3301 -158)">
	<stop  offset="0" style="stop-color:#4B2156"/>
	<stop  offset="0.33" style="stop-color:#431841"/>
	<stop  offset="0.73" style="stop-color:#3B0F2C"/>
	<stop  offset="1" style="stop-color:#380C25"/>
</linearGradient>
<polygon class="st3" points="24,185.4 23.6,186.9 28.7,186.9 28.3,185.4 "/>
<linearGradient id="SVGID_4_" gradientUnits="userSpaceOnUse" x1="-5050.5303" y1="342.87" x2="-5050.5303" y2="339.89" gradientTransform="matrix(-1 0 0 1 -5024.3301 -158)">
	<stop  offset="0" style="stop-color:#4B2156"/>
	<stop  offset="0.33" style="stop-color:#431841"/>
	<stop  offset="0.73" style="stop-color:#3B0F2C"/>
	<stop  offset="1" style="stop-color:#380C25"/>
</linearGradient>
<polygon class="st4" points="28.4,181.6 26.2,181.6 23.9,181.6 23,185.4 26.2,185.4 29.4,185.4 "/>
<g class="st5">
	<polygon class="st6" points="28.5,182 28.6,182.4 23.7,182.4 23.8,182 	"/>
	<polygon class="st6" points="28.8,183 28.9,183.4 23.5,183.4 23.6,183 	"/>
	<polygon class="st6" points="23.2,184.4 23.3,184 29,184 29.1,184.4 	"/>
</g>
<linearGradient id="SVGID_5_" gradientUnits="userSpaceOnUse" x1="-5046.7803" y1="302.5699" x2="-5046.7803" y2="334.62" gradientTransform="matrix(-1 0 0 1 -5024.3301 -158)">
	<stop  offset="0" style="stop-color:#C04B50"/>
	<stop  offset="1" style="stop-color:#2C2762"/>
</linearGradient>
<polygon class="st7" points="20.3,185.4 19.9,186.9 25,186.9 24.6,185.4 "/>
<linearGradient id="SVGID_6_" gradientUnits="userSpaceOnUse" x1="-5046.73" y1="302.5699" x2="-5046.73" y2="334.62" gradientTransform="matrix(-1 0 0 1 -5024.3301 -158)">
	<stop  offset="0" style="stop-color:#C04B50"/>
	<stop  offset="1" style="stop-color:#2C2762"/>
</linearGradient>
<polygon class="st8" points="24.6,181.6 22.4,181.6 20.2,181.6 19.2,185.4 22.4,185.4 25.6,185.4 "/>
<g class="st5">
	<polygon class="st6" points="24.8,182 24.9,182.4 20,182.4 20.1,182 	"/>
	<polygon class="st6" points="25,183 25.1,183.4 19.7,183.4 19.8,183 	"/>
	<polygon class="st6" points="19.5,184.4 19.6,184 25.3,184 25.4,184.4 	"/>
</g>
<linearGradient id="SVGID_7_" gradientUnits="userSpaceOnUse" x1="-5054.23" y1="302.5699" x2="-5054.23" y2="334.62" gradientTransform="matrix(-1 0 0 1 -5024.3301 -158)">
	<stop  offset="0" style="stop-color:#C04B50"/>
	<stop  offset="1" style="stop-color:#2C2762"/>
</linearGradient>
<polygon class="st9" points="27.7,185.4 27.3,186.9 32.5,186.9 32,185.4 "/>
<linearGradient id="SVGID_8_" gradientUnits="userSpaceOnUse" x1="-5054.23" y1="302.5699" x2="-5054.23" y2="334.62" gradientTransform="matrix(-1 0 0 1 -5024.3301 -158)">
	<stop  offset="0" style="stop-color:#C04B50"/>
	<stop  offset="1" style="stop-color:#2C2762"/>
</linearGradient>
<polygon class="st10" points="32.1,181.6 29.9,181.6 27.7,181.6 26.7,185.4 29.9,185.4 33.1,185.4 "/>
<g class="st5">
	<polygon class="st6" points="32.2,182 32.3,182.4 27.5,182.4 27.6,182 	"/>
	<polygon class="st6" points="32.5,183 32.6,183.4 27.2,183.4 27.3,183 	"/>
	<polygon class="st6" points="26.9,184.4 27,184 32.8,184 32.8,184.4 	"/>
</g>
<linearGradient id="SVGID_9_" gradientUnits="userSpaceOnUse" x1="16.44" y1="234.05" x2="35.88" y2="234.05" gradientTransform="matrix(1 0 0 1 0 -158)">
	<stop  offset="0" style="stop-color:#FFFDF1"/>
	<stop  offset="0.13" style="stop-color:#FCF8EB"/>
	<stop  offset="0.32" style="stop-color:#F4ECD9"/>
	<stop  offset="0.53" style="stop-color:#E8D7BC"/>
	<stop  offset="0.72" style="stop-color:#D9BF9B"/>
	<stop  offset="0.78" style="stop-color:#DBC4A2"/>
	<stop  offset="0.86" style="stop-color:#E1D2B6"/>
	<stop  offset="0.95" style="stop-color:#EBEAD5"/>
	<stop  offset="1" style="stop-color:#F1F7E8"/>
</linearGradient>
<path class="st11" d="M35.1,111.2c0.4,0,0.8-0.4,0.8-0.8l0,0V62.3c0-2.8-6.9-21.4-9.7-21.4s-9.7,18.5-9.7,21.4v48.1
	c0,0.4,0.4,0.8,0.8,0.8l0,0C17.3,111.2,35.1,111.2,35.1,111.2z"/>
<linearGradient id="SVGID_10_" gradientUnits="userSpaceOnUse" x1="16.4399" y1="334.15" x2="35.8801" y2="334.15" gradientTransform="matrix(1 0 0 1 0 -158)">
	<stop  offset="0" style="stop-color:#FFFDF1"/>
	<stop  offset="0.13" style="stop-color:#FCF8EB"/>
	<stop  offset="0.32" style="stop-color:#F4ECD9"/>
	<stop  offset="0.53" style="stop-color:#E8D7BC"/>
	<stop  offset="0.72" style="stop-color:#D9BF9B"/>
	<stop  offset="0.78" style="stop-color:#DBC4A2"/>
	<stop  offset="0.86" style="stop-color:#E1D2B6"/>
	<stop  offset="0.95" style="stop-color:#EBEAD5"/>
	<stop  offset="1" style="stop-color:#F1F7E8"/>
</linearGradient>
<path class="st12" d="M35.2,170.4H17.1c-0.4,0-0.7,0.3-0.7,0.6l0,0v10.2c0,0.4,0.3,0.7,0.7,0.7l0,0h18.1c0.4,0,0.7-0.3,0.7-0.7V171
	C35.9,170.7,35.6,170.4,35.2,170.4L35.2,170.4z"/>
<linearGradient id="SVGID_11_" gradientUnits="userSpaceOnUse" x1="16.4399" y1="298.85" x2="35.8801" y2="298.85" gradientTransform="matrix(1 0 0 1 0 -158)">
	<stop  offset="0" style="stop-color:#FFFDF1"/>
	<stop  offset="0.13" style="stop-color:#FCF8EB"/>
	<stop  offset="0.32" style="stop-color:#F4ECD9"/>
	<stop  offset="0.53" style="stop-color:#E8D7BC"/>
	<stop  offset="0.72" style="stop-color:#D9BF9B"/>
	<stop  offset="0.78" style="stop-color:#DBC4A2"/>
	<stop  offset="0.86" style="stop-color:#E1D2B6"/>
	<stop  offset="0.95" style="stop-color:#EBEAD5"/>
	<stop  offset="1" style="stop-color:#F1F7E8"/>
</linearGradient>
<path class="st13" d="M35.2,111.2H17.1c-0.4,0-0.7,0.3-0.7,0.7l0,0v57.9c0,0.4,0.3,0.7,0.6,0.7l0,0h18.1c0.4,0,0.7-0.3,0.7-0.6l0,0
	V112C35.9,111.5,35.6,111.2,35.2,111.2z"/>
<g class="st14">
	<path class="st15" d="M30.8,111.2h0.4V62.3c0-2.3-2.5-18.4-4.2-21.2c-0.2-0.1-0.3-0.2-0.5-0.2c1.5,2,4.4,18.6,4.4,21.4L30.8,111.2z
		"/>
	<polygon class="st15" points="29.4,134.9 16.4,134.9 16.4,135.4 29.4,135.4 29.4,155.4 35.9,155.4 35.9,155 29.8,155 29.8,118.1 
		35.9,118.1 35.9,117.7 29.4,117.7 	"/>
	<path class="st15" d="M33.4,165.1v-5.6l-1.3-1.3h-2.7v8.2h2.7L33.4,165.1z M29.8,165.9v-7.3h2.1l1,1v5.3l-1,1H29.8z"/>
	<path class="st15" d="M29.4,172.8h-13v0.4h13v1.9h2.3v-1.9h4.1v-0.4H29.4z M31.3,174.7h-1.5v-1.5h1.5V174.7z"/>
</g>
<path class="st16" d="M16.4,170.9v0.9h19.4v-0.9c0-0.4-0.3-0.7-0.7-0.7h-18C16.7,170.3,16.4,170.6,16.4,170.9L16.4,170.9z"/>
<path class="st16" d="M18,136.8c0,0.1-0.1,0.2-0.2,0.2s-0.2-0.1-0.2-0.2c0-0.1,0.1-0.2,0.2-0.2l0,0C17.9,136.6,18,136.7,18,136.8z
	 M17.8,137.9c-0.1,0-0.2,0.1-0.2,0.2c0,0.1,0.1,0.2,0.2,0.2s0.2-0.1,0.2-0.2l0,0C18,138,17.9,137.9,17.8,137.9L17.8,137.9z
	 M17.8,139.2c-0.1,0-0.2,0.1-0.2,0.2c0,0.1,0.1,0.2,0.2,0.2s0.2-0.1,0.2-0.2l0,0C18,139.3,17.9,139.2,17.8,139.2L17.8,139.2z
	 M17.8,164.6c-0.1,0-0.2,0.1-0.2,0.2c0,0.1,0.1,0.2,0.2,0.2s0.2-0.1,0.2-0.2l0,0C18,164.7,17.9,164.6,17.8,164.6L17.8,164.6z"/>
<path class="st16" d="M31.2,119.9c0,0.1-0.1,0.2-0.2,0.2s-0.2-0.1-0.2-0.2s0.1-0.2,0.2-0.2l0,0C31.1,119.7,31.2,119.8,31.2,119.9z
	 M31,121c-0.1,0-0.2,0.1-0.2,0.2s0.1,0.2,0.2,0.2s0.2-0.1,0.2-0.2l0,0C31.2,121.1,31.1,121,31,121z M31,122.3
	c-0.1,0-0.2,0.1-0.2,0.2s0.1,0.2,0.2,0.2s0.2-0.1,0.2-0.2l0,0C31.2,122.4,31.1,122.3,31,122.3L31,122.3L31,122.3z M31,123.6
	c-0.1,0-0.2,0.1-0.2,0.2s0.1,0.2,0.2,0.2s0.2-0.1,0.2-0.2l0,0C31.2,123.7,31.1,123.6,31,123.6C31,123.6,31,123.5,31,123.6L31,123.6z
	"/>
<path class="st16" d="M29.6,74.1c0,0.1-0.1,0.3-0.3,0.3c-0.1,0-0.2-0.2-0.2-0.3c0-0.1,0.1-0.2,0.2-0.2C29.5,73.8,29.6,74,29.6,74.1
	L29.6,74.1z M29.4,75.5c-0.1,0-0.3,0.1-0.3,0.3l0,0c0,0.1,0.1,0.3,0.2,0.3l0,0c0.1,0,0.3-0.1,0.3-0.3l0,0
	C29.6,75.7,29.5,75.5,29.4,75.5L29.4,75.5z M29.4,77.2c-0.1,0-0.3,0.1-0.3,0.3c0,0.1,0.1,0.3,0.3,0.3c0.1,0,0.3-0.1,0.3-0.3
	C29.6,77.4,29.5,77.3,29.4,77.2z M29.4,78.9c-0.1,0-0.3,0.1-0.3,0.2l0,0c0,0.1,0.1,0.3,0.3,0.3l0,0c0.1,0,0.3-0.1,0.3-0.3l0,0
	C29.6,79.1,29.5,79,29.4,78.9L29.4,78.9z"/>
<path class="st16" d="M16.4,111.8v0.2h19.4v-0.1c0-0.4-0.3-0.7-0.7-0.7h-18C16.7,111.2,16.5,111.5,16.4,111.8z"/>
<linearGradient id="SVGID_12_" gradientUnits="userSpaceOnUse" x1="-5099.0801" y1="344.15" x2="-5099.0801" y2="342.87" gradientTransform="matrix(-1 0 0 1 -5024.3301 -158)">
	<stop  offset="0" style="stop-color:#4B2156"/>
	<stop  offset="0.33" style="stop-color:#431841"/>
	<stop  offset="0.73" style="stop-color:#3B0F2C"/>
	<stop  offset="1" style="stop-color:#380C25"/>
</linearGradient>
<polygon class="st17" points="72.6,185.4 72.2,186.9 77.3,186.9 76.9,185.4 "/>
<linearGradient id="SVGID_13_" gradientUnits="userSpaceOnUse" x1="-5099.1299" y1="342.87" x2="-5099.1299" y2="339.89" gradientTransform="matrix(-1 0 0 1 -5024.3301 -158)">
	<stop  offset="0" style="stop-color:#4B2156"/>
	<stop  offset="0.33" style="stop-color:#431841"/>
	<stop  offset="0.73" style="stop-color:#3B0F2C"/>
	<stop  offset="1" style="stop-color:#380C25"/>
</linearGradient>
<polygon class="st18" points="77,181.6 74.8,181.6 72.6,181.6 71.6,185.4 74.8,185.4 78,185.4 "/>
<g class="st5">
	<polygon class="st6" points="77.1,182 77.2,182.4 72.3,182.4 72.5,182 	"/>
	<polygon class="st6" points="77.4,183 77.5,183.4 72.1,183.4 72.2,183 	"/>
	<polygon class="st6" points="71.8,184.4 71.9,184 77.6,184 77.7,184.4 	"/>
</g>
<linearGradient id="SVGID_14_" gradientUnits="userSpaceOnUse" x1="-5095.3799" y1="302.5699" x2="-5095.3799" y2="334.62" gradientTransform="matrix(-1 0 0 1 -5024.3301 -158)">
	<stop  offset="0" style="stop-color:#C04B50"/>
	<stop  offset="1" style="stop-color:#2C2762"/>
</linearGradient>
<polygon class="st19" points="68.9,185.4 68.5,186.9 73.6,186.9 73.2,185.4 "/>
<linearGradient id="SVGID_15_" gradientUnits="userSpaceOnUse" x1="-5095.3301" y1="302.5699" x2="-5095.3301" y2="334.62" gradientTransform="matrix(-1 0 0 1 -5024.3301 -158)">
	<stop  offset="0" style="stop-color:#C04B50"/>
	<stop  offset="1" style="stop-color:#2C2762"/>
</linearGradient>
<polygon class="st20" points="73.3,181.6 71.1,181.6 68.8,181.6 67.8,185.4 71.1,185.4 74.2,185.4 "/>
<g class="st5">
	<polygon class="st6" points="73.4,182 73.5,182.4 68.6,182.4 68.7,182 	"/>
	<polygon class="st6" points="73.6,183 73.8,183.4 68.4,183.4 68.5,183 	"/>
	<polygon class="st6" points="68.1,184.4 68.2,184 73.9,184 74,184.4 	"/>
</g>
<linearGradient id="SVGID_16_" gradientUnits="userSpaceOnUse" x1="-5102.8301" y1="302.5699" x2="-5102.8301" y2="334.62" gradientTransform="matrix(-1 0 0 1 -5024.3301 -158)">
	<stop  offset="0" style="stop-color:#C04B50"/>
	<stop  offset="1" style="stop-color:#2C2762"/>
</linearGradient>
<polygon class="st21" points="76.4,185.4 75.9,186.9 81.1,186.9 80.7,185.4 "/>
<linearGradient id="SVGID_17_" gradientUnits="userSpaceOnUse" x1="-5102.8301" y1="302.5699" x2="-5102.8301" y2="334.62" gradientTransform="matrix(-1 0 0 1 -5024.3301 -158)">
	<stop  offset="0" style="stop-color:#C04B50"/>
	<stop  offset="1" style="stop-color:#2C2762"/>
</linearGradient>
<polygon class="st22" points="80.7,181.6 78.5,181.6 76.3,181.6 75.3,185.4 78.5,185.4 81.7,185.4 "/>
<g class="st5">
	<polygon class="st6" points="80.8,182 80.9,182.4 76.1,182.4 76.2,182 	"/>
	<polygon class="st6" points="81.1,183 81.2,183.4 75.8,183.4 75.9,183 	"/>
	<polygon class="st6" points="75.6,184.4 75.7,184 81.4,184 81.5,184.4 	"/>
</g>
<linearGradient id="SVGID_18_" gradientUnits="userSpaceOnUse" x1="65.06" y1="234.05" x2="84.5" y2="234.05" gradientTransform="matrix(1 0 0 1 0 -158)">
	<stop  offset="0" style="stop-color:#FFFDF1"/>
	<stop  offset="0.13" style="stop-color:#FCF8EB"/>
	<stop  offset="0.32" style="stop-color:#F4ECD9"/>
	<stop  offset="0.53" style="stop-color:#E8D7BC"/>
	<stop  offset="0.72" style="stop-color:#D9BF9B"/>
	<stop  offset="0.78" style="stop-color:#DBC4A2"/>
	<stop  offset="0.86" style="stop-color:#E1D2B6"/>
	<stop  offset="0.95" style="stop-color:#EBEAD5"/>
	<stop  offset="1" style="stop-color:#F1F7E8"/>
</linearGradient>
<path class="st23" d="M83.7,111.2c0.4,0,0.8-0.4,0.8-0.8l0,0V62.3c0-2.8-6.9-21.4-9.7-21.4s-9.7,18.5-9.7,21.4v48.1
	c0,0.4,0.4,0.8,0.8,0.8l0,0C65.9,111.2,83.7,111.2,83.7,111.2z"/>
<linearGradient id="SVGID_19_" gradientUnits="userSpaceOnUse" x1="65.0599" y1="334.15" x2="84.5001" y2="334.15" gradientTransform="matrix(1 0 0 1 0 -158)">
	<stop  offset="0" style="stop-color:#FFFDF1"/>
	<stop  offset="0.13" style="stop-color:#FCF8EB"/>
	<stop  offset="0.32" style="stop-color:#F4ECD9"/>
	<stop  offset="0.53" style="stop-color:#E8D7BC"/>
	<stop  offset="0.72" style="stop-color:#D9BF9B"/>
	<stop  offset="0.78" style="stop-color:#DBC4A2"/>
	<stop  offset="0.86" style="stop-color:#E1D2B6"/>
	<stop  offset="0.95" style="stop-color:#EBEAD5"/>
	<stop  offset="1" style="stop-color:#F1F7E8"/>
</linearGradient>
<path class="st24" d="M83.8,170.4H65.7c-0.4,0-0.7,0.3-0.7,0.6l0,0v10.2c0,0.4,0.3,0.7,0.7,0.7l0,0h18.1c0.4,0,0.7-0.3,0.7-0.7V171
	C84.5,170.7,84.2,170.4,83.8,170.4C83.9,170.4,83.9,170.4,83.8,170.4z"/>
<linearGradient id="SVGID_20_" gradientUnits="userSpaceOnUse" x1="65.0599" y1="298.85" x2="84.5001" y2="298.85" gradientTransform="matrix(1 0 0 1 0 -158)">
	<stop  offset="0" style="stop-color:#FFFDF1"/>
	<stop  offset="0.13" style="stop-color:#FCF8EB"/>
	<stop  offset="0.32" style="stop-color:#F4ECD9"/>
	<stop  offset="0.53" style="stop-color:#E8D7BC"/>
	<stop  offset="0.72" style="stop-color:#D9BF9B"/>
	<stop  offset="0.78" style="stop-color:#DBC4A2"/>
	<stop  offset="0.86" style="stop-color:#E1D2B6"/>
	<stop  offset="0.95" style="stop-color:#EBEAD5"/>
	<stop  offset="1" style="stop-color:#F1F7E8"/>
</linearGradient>
<path class="st25" d="M83.8,111.2H65.7c-0.4,0-0.7,0.3-0.7,0.7l0,0v57.9c0,0.4,0.3,0.7,0.6,0.7l0,0h18.1c0.4,0,0.7-0.3,0.7-0.6l0,0
	V112C84.5,111.5,84.2,111.2,83.8,111.2z"/>
<g class="st14">
	<path class="st15" d="M79.5,111.2h0.4V62.3c0-2.3-2.5-18.4-4.2-21.2c-0.2-0.1-0.3-0.2-0.5-0.2c1.5,2,4.4,18.6,4.4,21.4v48.9H79.5z"
		/>
	<polygon class="st15" points="78,134.9 65.1,134.9 65.1,135.4 78,135.4 78,155.4 84.5,155.4 84.5,155 78.5,155 78.5,118.1 
		84.5,118.1 84.5,117.7 78,117.7 	"/>
	<path class="st15" d="M82,165.1v-5.6l-1.3-1.3H78v8.2h2.7L82,165.1z M78.5,165.9v-7.3h2.1l1,1v5.3l-1,1H78.5z"/>
	<path class="st15" d="M78,172.8H65v0.4h13v1.9h2.3v-1.9h4.2v-0.4H78z M79.9,174.7h-1.4v-1.5H80L79.9,174.7z"/>
</g>
<path class="st16" d="M65.1,170.9v0.9h19.4v-0.9c0-0.4-0.3-0.7-0.7-0.7H65.7C65.4,170.3,65.1,170.6,65.1,170.9L65.1,170.9z"/>
<path class="st16" d="M66.6,136.8c0,0.1-0.1,0.2-0.2,0.2s-0.2-0.1-0.2-0.2s0.1-0.2,0.2-0.2l0,0C66.5,136.6,66.6,136.7,66.6,136.8z
	 M66.4,137.9c-0.1,0-0.2,0.1-0.2,0.2c0,0.1,0.1,0.2,0.2,0.2s0.2-0.1,0.2-0.2l0,0C66.6,138,66.5,137.9,66.4,137.9z M66.4,139.2
	c-0.1,0-0.2,0.1-0.2,0.2c0,0.1,0.1,0.2,0.2,0.2s0.2-0.1,0.2-0.2l0,0C66.6,139.3,66.5,139.2,66.4,139.2L66.4,139.2z M66.4,164.6
	c-0.1,0-0.2,0.1-0.2,0.2c0,0.1,0.1,0.2,0.2,0.2s0.2-0.1,0.2-0.2l0,0C66.6,164.7,66.5,164.6,66.4,164.6L66.4,164.6z"/>
<path class="st16" d="M79.8,119.9c0,0.1-0.1,0.2-0.2,0.2s-0.2-0.1-0.2-0.2s0.1-0.2,0.2-0.2l0,0C79.7,119.7,79.8,119.8,79.8,119.9z
	 M79.6,121c-0.1,0-0.2,0.1-0.2,0.2s0.1,0.2,0.2,0.2s0.2-0.1,0.2-0.2l0,0C79.8,121.1,79.7,121,79.6,121L79.6,121z M79.6,122.3
	c-0.1,0-0.2,0.1-0.2,0.2s0.1,0.2,0.2,0.2s0.2-0.1,0.2-0.2l0,0C79.8,122.3,79.7,122.3,79.6,122.3z M79.6,123.5
	c-0.1,0-0.2,0.1-0.2,0.2s0.1,0.2,0.2,0.2s0.2-0.1,0.2-0.2l0,0C79.8,123.6,79.7,123.5,79.6,123.5z"/>
<path class="st16" d="M78.2,74.1c0,0.1-0.1,0.3-0.3,0.3c-0.1,0-0.2-0.2-0.2-0.3c0-0.1,0.1-0.2,0.2-0.2C78.1,73.8,78.2,74,78.2,74.1
	L78.2,74.1z M78,75.5c-0.1,0-0.3,0.1-0.3,0.3l0,0c0,0.1,0.1,0.3,0.2,0.3l0,0c0.1,0,0.3-0.1,0.3-0.3l0,0C78.3,75.7,78.1,75.5,78,75.5
	L78,75.5z M78,77.2c-0.1,0-0.3,0.1-0.3,0.3c0,0.1,0.1,0.3,0.3,0.3l0,0c0.1,0,0.3-0.1,0.3-0.3C78.3,77.4,78.1,77.3,78,77.2L78,77.2z
	 M78,79c-0.1,0-0.3,0.1-0.3,0.2l0,0c0,0.1,0.1,0.3,0.3,0.3l0,0c0.1,0,0.3-0.1,0.3-0.3l0,0C78.3,79.1,78.1,79,78,79L78,79z"/>
<path class="st16" d="M65.1,111.8v0.2h19.4v-0.1c0-0.4-0.3-0.7-0.7-0.7H65.7C65.4,111.2,65.1,111.5,65.1,111.8z"/>
<linearGradient id="SVGID_21_" gradientUnits="userSpaceOnUse" x1="36.26" y1="260.45" x2="66.2" y2="260.45" gradientTransform="matrix(1 0 0 1 0 -158)">
	<stop  offset="0" style="stop-color:#FABB5C"/>
	<stop  offset="0.85" style="stop-color:#E9474D"/>
	<stop  offset="1" style="stop-color:#F08258"/>
</linearGradient>
<path class="st26" d="M34.8,174.2h31.4V31.9c0-0.7-0.5-1.2-1.2-1.2l0,0H36c-0.7,0-1.2,0.5-1.2,1.2l0,0V174.2z"/>
<linearGradient id="SVGID_22_" gradientUnits="userSpaceOnUse" x1="37.5" y1="173.35" x2="64.2" y2="173.35" gradientTransform="matrix(1 0 0 1 0 -158)">
	<stop  offset="0" style="stop-color:#FABB5C"/>
	<stop  offset="0.85" style="stop-color:#E9474D"/>
	<stop  offset="1" style="stop-color:#F08258"/>
</linearGradient>
<path class="st27" d="M50.5,0c-1.6,0-15.1,10-15.7,29.5c0,0.6,0.5,1.2,1.1,1.2l0,0H65c0.6,0,1.2-0.5,1.2-1.2l0,0
	C65.7,10,52.2,0,50.5,0z"/>
<linearGradient id="SVGID_23_" gradientUnits="userSpaceOnUse" x1="-5074.8799" y1="345.15" x2="-5074.8799" y2="342.9901" gradientTransform="matrix(-1 0 0 1 -5024.3301 -158)">
	<stop  offset="0" style="stop-color:#4B2156"/>
	<stop  offset="0.33" style="stop-color:#431841"/>
	<stop  offset="0.73" style="stop-color:#3B0F2C"/>
	<stop  offset="1" style="stop-color:#380C25"/>
</linearGradient>
<polygon class="st28" points="46.9,185.8 46.2,188.5 54.9,188.5 54.2,185.8 "/>
<linearGradient id="SVGID_24_" gradientUnits="userSpaceOnUse" x1="-5074.8799" y1="342.9901" x2="-5074.8799" y2="337.93" gradientTransform="matrix(-1 0 0 1 -5024.3301 -158)">
	<stop  offset="0" style="stop-color:#4B2156"/>
	<stop  offset="0.33" style="stop-color:#431841"/>
	<stop  offset="0.73" style="stop-color:#3B0F2C"/>
	<stop  offset="1" style="stop-color:#380C25"/>
</linearGradient>
<polygon class="st29" points="54.3,179.5 50.5,179.5 46.8,179.5 45.1,185.8 50.5,185.8 56,185.8 "/>
<g class="st5">
	<polygon class="st6" points="54.5,180.1 54.7,180.8 46.4,180.8 46.6,180.1 	"/>
	<polygon class="st6" points="54.9,181.9 55.1,182.5 46,182.5 46.2,181.9 	"/>
	<polygon class="st6" points="45.5,184.2 45.7,183.6 55.4,183.6 55.6,184.2 	"/>
</g>
<linearGradient id="SVGID_25_" gradientUnits="userSpaceOnUse" x1="-5068.5303" y1="302.5699" x2="-5068.5303" y2="334.62" gradientTransform="matrix(-1 0 0 1 -5024.3301 -158)">
	<stop  offset="0" style="stop-color:#C04B50"/>
	<stop  offset="1" style="stop-color:#2C2762"/>
</linearGradient>
<polygon class="st30" points="40.6,185.8 39.9,188.5 48.5,188.5 47.9,185.8 "/>
<linearGradient id="SVGID_26_" gradientUnits="userSpaceOnUse" x1="-5068.5801" y1="302.5699" x2="-5068.5801" y2="334.62" gradientTransform="matrix(-1 0 0 1 -5024.3301 -158)">
	<stop  offset="0" style="stop-color:#C04B50"/>
	<stop  offset="1" style="stop-color:#2C2762"/>
</linearGradient>
<polygon class="st31" points="48,179.5 44.2,179.5 40.5,179.5 38.8,185.8 44.2,185.8 49.7,185.8 "/>
<g class="st5">
	<polygon class="st6" points="48.2,180.1 48.3,180.8 40.1,180.8 40.3,180.1 	"/>
	<polygon class="st6" points="48.6,181.9 48.8,182.5 39.7,182.5 39.8,181.9 	"/>
	<polygon class="st6" points="39.2,184.2 39.4,183.6 49.1,183.6 49.2,184.2 	"/>
</g>
<linearGradient id="SVGID_27_" gradientUnits="userSpaceOnUse" x1="-5081.1802" y1="302.5699" x2="-5081.1802" y2="334.62" gradientTransform="matrix(-1 0 0 1 -5024.3301 -158)">
	<stop  offset="0" style="stop-color:#C04B50"/>
	<stop  offset="1" style="stop-color:#2C2762"/>
</linearGradient>
<polygon class="st32" points="53.2,185.8 52.5,188.5 61.2,188.5 60.5,185.8 "/>
<linearGradient id="SVGID_28_" gradientUnits="userSpaceOnUse" x1="-5081.1802" y1="302.5699" x2="-5081.1802" y2="334.62" gradientTransform="matrix(-1 0 0 1 -5024.3301 -158)">
	<stop  offset="0" style="stop-color:#C04B50"/>
	<stop  offset="1" style="stop-color:#2C2762"/>
</linearGradient>
<polygon class="st33" points="60.6,179.5 56.9,179.5 53.1,179.5 51.4,185.8 56.9,185.8 62.3,185.8 "/>
<g class="st5">
	<polygon class="st6" points="60.8,180.1 61,180.8 52.8,180.8 52.9,180.1 	"/>
	<polygon class="st6" points="61.3,181.9 61.4,182.5 52.3,182.5 52.5,181.9 	"/>
	<polygon class="st6" points="51.8,184.2 52,183.6 61.7,183.6 61.9,184.2 	"/>
</g>
<linearGradient id="SVGID_29_" gradientUnits="userSpaceOnUse" x1="1.48" y1="293.75" x2="51.2" y2="293.75" gradientTransform="matrix(1 0 0 1 0 -158)">
	<stop  offset="0" style="stop-color:#FFFDEE"/>
	<stop  offset="1" style="stop-color:#F1E3AF"/>
</linearGradient>
<path class="st34" d="M50.5,177v-11.6L39.9,94.5c0,4.7-4.9,32.3-6.4,40.8c-0.3,1.7-1.1,3.2-2.2,4.5c-4.3,4.6-8.7,8.9-13.5,13
	c-2.9,2.5-6.7,5.6-9.1,7.5c-1.5,1.2-2.6,2.9-3,4.9L3.2,177H50.5z"/>
<linearGradient id="SVGID_30_" gradientUnits="userSpaceOnUse" x1="94.66" y1="293.7" x2="59.24" y2="293.7" gradientTransform="matrix(1 0 0 1 0 -158)">
	<stop  offset="0" style="stop-color:#FFFDEE"/>
	<stop  offset="1" style="stop-color:#F1E3AF"/>
</linearGradient>
<path class="st35" d="M97.9,177l-2.4-11.9c-0.4-1.9-1.5-3.7-3-4.9c-2.4-1.9-6.2-5-9.1-7.5c-4.7-4.1-9.2-8.4-13.5-13
	c-1.2-1.2-1.9-2.8-2.2-4.5c-1.5-8.5-6.4-36.1-6.4-40.8l-10.7,70.9V177H97.9z"/>
<linearGradient id="SVGID_31_" gradientUnits="userSpaceOnUse" x1="81.2" y1="302.5699" x2="81.2" y2="334.62" gradientTransform="matrix(1 0 0 1 0 -158)">
	<stop  offset="0" style="stop-color:#C04B50"/>
	<stop  offset="1" style="stop-color:#2C2762"/>
</linearGradient>
<path class="st36" d="M67.4,140.2c4.1,5,8.6,9.6,13.4,13.8c2.9,2.5,6.8,5.6,9.3,7.4c1.6,1.2,2.7,2.9,3.1,4.8l1.1,4.8h2.3l-1.2-5.8
	c-0.4-1.9-1.5-3.7-3-4.9c-2.4-1.9-6.2-5-9.1-7.5c-4.7-4.1-9.2-8.4-13.5-13c-1.2-1.2-1.9-2.8-2.2-4.5l-0.1-0.5h-1.7
	c0.2,1.3,0.4,2.4,0.5,3.1C66.5,138.8,66.9,139.6,67.4,140.2z"/>
<linearGradient id="SVGID_32_" gradientUnits="userSpaceOnUse" x1="19.8" y1="302.5699" x2="19.8" y2="334.62" gradientTransform="matrix(1 0 0 1 0 -158)">
	<stop  offset="0" style="stop-color:#C04B50"/>
	<stop  offset="1" style="stop-color:#2C2762"/>
</linearGradient>
<path class="st37" d="M6.7,171l1.1-4.7c0.5-1.9,1.6-3.6,3.2-4.8c2.5-1.9,6.4-4.9,9.3-7.4c4.9-4.2,9.4-8.8,13.4-13.8
	c0.5-0.7,0.9-1.5,1-2.3s0.3-1.8,0.5-3.1h-1.6l-0.1,0.5c-0.3,1.7-1.1,3.2-2.2,4.5c-4.3,4.6-8.7,8.9-13.5,13c-2.9,2.5-6.7,5.6-9.1,7.5
	c-1.5,1.2-2.6,2.9-3,4.9L4.4,171H6.7z"/>
<linearGradient id="SVGID_33_" gradientUnits="userSpaceOnUse" x1="40.26" y1="272.85" x2="62.76" y2="272.85" gradientTransform="matrix(1 0 0 1 0 -158)">
	<stop  offset="0" style="stop-color:#FFFDF1"/>
	<stop  offset="0.13" style="stop-color:#FCF8EB"/>
	<stop  offset="0.32" style="stop-color:#F4ECD9"/>
	<stop  offset="0.53" style="stop-color:#E8D7BC"/>
	<stop  offset="0.72" style="stop-color:#D9BF9B"/>
	<stop  offset="0.78" style="stop-color:#DBC4A2"/>
	<stop  offset="0.86" style="stop-color:#E1D2B6"/>
	<stop  offset="0.95" style="stop-color:#EBEAD5"/>
	<stop  offset="1" style="stop-color:#F1F7E8"/>
</linearGradient>
<path class="st38" d="M58.8,74.9L58.8,74.9c-2.5-7.7-6.8-10.6-8.3-10.6s-5.8,3-8.3,10.6l0,0c-2,6.1-2.4,13.4-2.4,19.6v70.9h21.3
	V94.5C61.2,88.3,60.8,81,58.8,74.9z"/>
<path class="st16" d="M42.5,74.3h16.1c0-0.1-0.1-0.3-0.2-0.4H42.6C42.6,74,42.5,74.1,42.5,74.3z"/>
<path class="st16" d="M59.1,104.2c0,0.1-0.1,0.3-0.3,0.3l0,0c-0.1,0-0.3-0.1-0.3-0.3l0,0c0-0.1,0.1-0.3,0.2-0.3l0,0
	C59,103.9,59.1,104,59.1,104.2L59.1,104.2z M58.9,105.6c-0.1,0-0.2,0.2-0.2,0.3c0,0.1,0.1,0.2,0.2,0.2c0.1,0,0.2-0.2,0.2-0.3
	C59.1,105.7,59,105.6,58.9,105.6z M58.9,107.3c-0.1,0-0.3,0.1-0.3,0.3l0,0c0,0.1,0.1,0.3,0.2,0.3l0,0c0.1,0,0.3-0.1,0.3-0.3l0,0
	C59.1,107.4,59,107.3,58.9,107.3L58.9,107.3z M58.9,109c-0.1,0-0.3,0.1-0.3,0.3c0,0.1,0.1,0.3,0.3,0.3c0.1,0,0.3-0.1,0.3-0.3
	S59,109,58.9,109L58.9,109z"/>
<polygon class="st16" points="61.2,99.6 61.2,99.3 39.9,99.3 39.9,99.6 57.3,99.6 57.3,125.4 61.2,125.4 61.2,125.1 57.6,125.1 
	57.6,99.6 "/>
<linearGradient id="SVGID_34_" gradientUnits="userSpaceOnUse" x1="50.5" y1="302.5699" x2="50.5" y2="334.62" gradientTransform="matrix(1 0 0 1 0 -158)">
	<stop  offset="0" style="stop-color:#C04B50"/>
	<stop  offset="1" style="stop-color:#2C2762"/>
</linearGradient>
<path class="st39" d="M57.3,85.5C57,85,53,80.1,50.5,80.1S44,85,43.7,85.6c-0.3,1.1-0.5,2.2-0.6,3.4c0.1,0.2,4.6-4.7,7.4-4.7
	s7.3,4.9,7.4,4.7C57.9,87.7,57.7,86.6,57.3,85.5z"/>
<linearGradient id="SVGID_35_" gradientUnits="userSpaceOnUse" x1="71.34" y1="331.95" x2="47.83" y2="331.95" gradientTransform="matrix(1 0 0 1 0 -158)">
	<stop  offset="0" style="stop-color:#FFFDF1"/>
	<stop  offset="0.13" style="stop-color:#FCF8EB"/>
	<stop  offset="0.32" style="stop-color:#F4ECD9"/>
	<stop  offset="0.53" style="stop-color:#E8D7BC"/>
	<stop  offset="0.72" style="stop-color:#D9BF9B"/>
	<stop  offset="0.78" style="stop-color:#DBC4A2"/>
	<stop  offset="0.86" style="stop-color:#E1D2B6"/>
	<stop  offset="0.95" style="stop-color:#EBEAD5"/>
	<stop  offset="1" style="stop-color:#F1F7E8"/>
</linearGradient>
<path class="st40" d="M62.5,165.4c4.2,3.4,3.7,11.3,3.7,14.9v2.2H50.5v-17L62.5,165.4z"/>
<linearGradient id="SVGID_36_" gradientUnits="userSpaceOnUse" x1="54.23" y1="331.95" x2="28.45" y2="331.95" gradientTransform="matrix(1 0 0 1 0 -158)">
	<stop  offset="0" style="stop-color:#FFFDF1"/>
	<stop  offset="0.13" style="stop-color:#FCF8EB"/>
	<stop  offset="0.32" style="stop-color:#F4ECD9"/>
	<stop  offset="0.53" style="stop-color:#E8D7BC"/>
	<stop  offset="0.72" style="stop-color:#D9BF9B"/>
	<stop  offset="0.78" style="stop-color:#DBC4A2"/>
	<stop  offset="0.86" style="stop-color:#E1D2B6"/>
	<stop  offset="0.95" style="stop-color:#EBEAD5"/>
	<stop  offset="1" style="stop-color:#F1F7E8"/>
</linearGradient>
<path class="st41" d="M38.6,165.4c-4.2,3.4-3.8,11.3-3.8,14.9v2.2h15.7v-17L38.6,165.4z"/>
<linearGradient id="SVGID_37_" gradientUnits="userSpaceOnUse" x1="50.5" y1="303.12" x2="50.5" y2="332.57" gradientTransform="matrix(1 0 0 1 0 -158)">
	<stop  offset="0" style="stop-color:#C04B50"/>
	<stop  offset="1" style="stop-color:#2C2762"/>
</linearGradient>
<path class="st42" d="M50.5,151.4c1.8,0,2.2,3.1,2.2,7.1s-1.7,30-2.2,30s-2.2-26-2.2-30S48.7,151.4,50.5,151.4z"/>
<path class="st43" d="M36,30.7h29c0.6,0,1.2-0.5,1.2-1.2l0,0H34.9C34.9,30.2,35.4,30.7,36,30.7L36,30.7z"/>
<linearGradient id="SVGID_38_" gradientUnits="userSpaceOnUse" x1="50.7" y1="786.3" x2="50.7" y2="381.6" gradientTransform="matrix(1 0 0 1 0 -158)">
	<stop  offset="0.54" style="stop-color:#FFFFFF"/>
	<stop  offset="1" style="stop-color:#F3D300;stop-opacity:0"/>
</linearGradient>
<path class="st44" d="M50.5,223.6c0.4,16.9,0.5,33.7,0.8,50.5l0.5,50.6c0.2,16.9,0.2,33.7,0.3,50.6l0.2,50.6l-0.1,50.6
	c-0.1,16.9,0,33.7-0.2,50.6l-0.4,50.6c-0.2,16.9-0.4,33.7-0.7,50.6c-0.3-16.8-0.5-33.7-0.8-50.6l-0.5-50.6
	c-0.2-16.9-0.2-33.7-0.3-50.5L49.1,426l0.1-50.6c0-16.9,0-33.7,0.2-50.6l0.4-50.6C50.1,257.3,50.2,240.4,50.5,223.6z"/>
</svg>
